<?xml version="1.0" encoding="utf-8"?>
<!-- Generator: Adobe Illustrator 18.1.1, SVG Export Plug-In . SVG Version: 6.00 Build 0)  -->
<svg version="1.1" xmlns="http://www.w3.org/2000/svg" xmlns:xlink="http://www.w3.org/1999/xlink" x="0px" y="0px"
	 viewBox="0 0 1366 768" enable-background="new 0 0 1366 768" xml:space="preserve">
<g id="Layer_1" display="none">
	<rect display="inline" fill="#F1B65F" width="1370.6" height="768"/>
</g>
<g id="grid" display="none">
</g>
<g id="elements1" display="none">
	<path display="inline" fill="#F2ECE1" d="M1253,730.7h-83.4c-8.9,0-16.1,9.4-16.1,21v13.6v2.4v9.9v26.3h115.6v-26.3v-9.9v-2.4
		v-13.6C1269.1,740.1,1261.9,730.7,1253,730.7z"/>
	<path fill="#994923" d="M1120.3,641.8H254.4c-20.6,0-37.3-16.7-37.3-37.3V171.4c0-20.6,16.7-37.3,37.3-37.3h865.9
		c20.6,0,37.3,16.7,37.3,37.3v433.1C1157.5,625.1,1140.8,641.8,1120.3,641.8z"/>
	<path fill="#994923" d="M647.5,118.7H52.1c-17.6,0-31.8-14.2-31.8-31.8V-93.5c0-17.6,14.2-31.8,31.8-31.8h595.4
		c17.6,0,31.8,14.2,31.8,31.8V86.8C679.3,104.4,665.1,118.7,647.5,118.7z"/>
	<path display="inline" fill="#F2ECE1" d="M1350.9-28v47.2c0,10-2.1,18.1-4.7,18.1h-88.4c-2.6,0-4.7-8.1-4.7-18.1V-28H1350.9z"/>
	<path fill="#994923" d="M1022,570.8h-99.6c-8.8,0-16-7.2-16-16v-17.4c0-8.8,7.2-16,16-16h99.6c8.8,0,16,7.2,16,16v17.4
		C1038,563.6,1030.8,570.8,1022,570.8z"/>
	<g>
		<rect x="906.4" y="534.2" display="inline" fill="none" width="131.6" height="36.5"/>
		<path display="inline" fill="#F0EBDF" d="M929.7,557.3v-1.8l2.5-0.6l6.8-18.5l3-0.1l6.7,18.6l2.5,0.6v1.8h-8.7v-1.8l2.8-0.6
			l-1.1-3.3h-7.8l-1.2,3.3l2.8,0.6v1.8H929.7z M940.2,540.2l-3.1,9h6.2L940.2,540.2z"/>
		<path display="inline" fill="#F0EBDF" d="M957.5,541.4v17.3c0,1.8-0.5,3.3-1.4,4.3s-2.3,1.6-4.1,1.6l-1.9-0.2l0.3-2.1h1.5
			c1,0,1.7-0.3,2.1-0.8c0.4-0.5,0.6-1.3,0.6-2.2v-15.5l-2.5-0.6v-1.7L957.5,541.4z M955.7,534.4c1.3,0,2,0.8,2,2.3
			c0,0.6-0.2,1.1-0.7,1.4c-0.4,0.3-0.9,0.5-1.4,0.5c-0.5,0-1-0.2-1.3-0.6s-0.5-0.9-0.5-1.5c0-0.7,0.2-1.2,0.6-1.5
			S955.2,534.4,955.7,534.4z"/>
		<path display="inline" fill="#F0EBDF" d="M976.1,541.4v13.5l2.5,0.6v1.6l-5,0.2l-0.3-2.1c-0.8,0.7-1.8,1.3-2.8,1.8
			c-1.1,0.4-2,0.6-2.7,0.6c-1.6,0-2.8-0.5-3.6-1.4c-0.8-0.9-1.2-2.3-1.2-4v-8.4l-2.5-0.6v-1.7l5.5-0.2V552c0,1.1,0.2,1.8,0.6,2.4
			c0.4,0.5,1.1,0.8,1.9,0.8c0.9,0,1.7-0.2,2.4-0.6s1.3-0.8,1.6-1.2l0.5-0.6v-8.9l-2.5-0.6v-1.7L976.1,541.4z"/>
		<path display="inline" fill="#F0EBDF" d="M994.6,534.2v20.7l2.5,0.6v1.6l-5.1,0.2l-0.2-1.7c-1.3,1.3-3,2-5,2
			c-1.9,0-3.4-0.7-4.5-2.1c-1-1.4-1.6-3.3-1.6-5.8c0-2.6,0.7-4.7,2-6.3s3.3-2.4,5.9-2.4c1,0,1.9,0.2,2.9,0.5v-5L989,536v-1.7
			L994.6,534.2z M991.6,553v-8.9c-0.7-0.4-1.8-0.6-3.2-0.6c-3,0-4.5,2-4.5,6c0,1.8,0.3,3.1,0.9,4.2c0.6,1,1.6,1.5,2.8,1.5
			c1,0,1.8-0.3,2.5-0.8C990.8,553.9,991.3,553.5,991.6,553z"/>
		<path display="inline" fill="#F0EBDF" d="M1000.1,542.3c2.2-0.8,4.1-1.2,5.9-1.2c1.8,0,3.1,0.4,4.1,1.1c0.9,0.7,1.4,1.9,1.4,3.6
			v9.1l2.4,0.6v1.6l-4.7,0.2l-0.6-2.1c-1.6,1.6-3.2,2.4-4.7,2.4c-1.6,0-2.7-0.4-3.5-1.2c-0.8-0.8-1.2-1.9-1.2-3.3
			c0-3.1,2.3-4.6,6.9-4.6h2.4v-2.4c0-1.8-1-2.7-2.8-2.7c-1.1,0-2,0.1-2.7,0.3l-0.4,0.1l-0.4,2.3h-2L1000.1,542.3z M1008.5,550.4
			h-2.1c-1.5,0-2.6,0.2-3.2,0.6c-0.6,0.4-0.9,1-0.9,1.8c0,0.8,0.2,1.4,0.6,1.8s0.9,0.6,1.6,0.6c0.3,0,0.7-0.1,1-0.2s0.7-0.3,1-0.5
			c0.3-0.2,0.6-0.4,0.9-0.6s0.5-0.4,0.6-0.6l0.5-0.6V550.4z"/>
	</g>
	<path display="inline" fill="#F2ECE1" d="M1137.4,730.9h-83.4c-8.9,0-16.1,9.4-16.1,21v13.6v2.4v9.9v26.3h115.6v-26.3v-9.9v-2.4
		v-13.6C1153.5,740.3,1146.3,730.9,1137.4,730.9z"/>
	<path display="inline" fill="#F2ECE1" d="M1021.9,730.9h-83.4c-8.9,0-16.1,9.4-16.1,21v13.6v2.4v9.9v26.3H1038v-26.3v-9.9v-2.4
		v-13.6C1038,740.3,1030.8,730.9,1021.9,730.9z"/>
	<path display="inline" fill="#F2ECE1" d="M906.3,730.9H823c-8.9,0-16.1,9.4-16.1,21v13.6v2.4v9.9v26.3h115.6v-26.3v-9.9v-2.4v-13.6
		C922.4,740.3,915.2,730.9,906.3,730.9z"/>
	<g display="inline">
		<g>
			<path fill="#2B3990" d="M1278.1,22.7c0,1.1-0.2,2-0.6,2.8s-0.9,1.5-1.5,2s-1.4,0.9-2.3,1.2s-1.8,0.4-2.8,0.4
				c-0.4,0-0.8-0.1-1.3-0.2s-0.9-0.2-1.4-0.4s-0.9-0.3-1.4-0.5s-0.8-0.3-1.2-0.5l0.5-4.8c0.7,0.4,1.4,0.7,2.2,0.9s1.6,0.3,2.4,0.3
				c0.1,0,0.3,0,0.5,0s0.4,0,0.6-0.1s0.4-0.1,0.5-0.3s0.2-0.3,0.2-0.5c0-0.1,0-0.3-0.1-0.4s-0.2-0.2-0.4-0.3s-0.3-0.1-0.5-0.2
				s-0.4-0.1-0.6-0.1s-0.3,0-0.5,0s-0.3,0-0.4,0c-0.7,0-1.3-0.1-1.8-0.4s-1-0.6-1.4-1s-0.7-0.9-0.9-1.5s-0.3-1.2-0.3-1.9
				c0-0.9,0.2-1.7,0.6-2.5s0.9-1.4,1.5-1.9s1.3-0.9,2.1-1.2s1.6-0.4,2.5-0.4c0.4,0,0.8,0,1.2,0s0.8,0.1,1.2,0.1s0.8,0.2,1.2,0.3
				s0.7,0.2,1.1,0.4l-0.4,4.8c-0.5-0.2-1.1-0.3-1.7-0.5s-1.2-0.2-1.7-0.2c-0.1,0-0.2,0-0.4,0s-0.3,0-0.5,0s-0.4,0-0.5,0.1
				s-0.3,0.1-0.5,0.2s-0.3,0.2-0.3,0.3s-0.1,0.2-0.1,0.4c0,0.2,0.1,0.3,0.2,0.4s0.3,0.2,0.5,0.2s0.4,0.1,0.6,0.1s0.5,0,0.7,0
				s0.4,0,0.6,0s0.4,0,0.5,0c0.6,0,1.2,0.2,1.7,0.4s0.9,0.5,1.3,0.9s0.6,0.8,0.8,1.3S1278.1,22.1,1278.1,22.7z"/>
			<path fill="#2B3990" d="M1293.4,27.9l-5.8,0.8l-0.7-2.6h-2.7l-0.6,2.6l-6-0.6l4.7-15.6l6.5-0.3L1293.4,27.9z M1286.5,22.5
				l-0.9-4.1l-0.9,4.1H1286.5z"/>
			<path fill="#2B3990" d="M1300,12.4l-1.3,16l-4.9,0.3V12.8L1300,12.4z"/>
			<path fill="#2B3990" d="M1314.5,17.6c0,0.6-0.1,1.2-0.2,1.7s-0.3,1-0.5,1.4s-0.5,0.8-0.9,1.1s-0.8,0.7-1.3,1l2.8,5l-5.3,1l-1.8-5
				l-1.5,0l-0.2,4.9h-5c0-1.8,0.1-3.6,0.1-5.3s0.1-3.5,0.1-5.3c0-0.9,0-1.8,0-2.7s0-1.8,0.1-2.7c0.5-0.2,1.1-0.4,1.6-0.5
				s1.1-0.2,1.6-0.3s1.1-0.1,1.6-0.2s1.1,0,1.7,0c0.9,0,1.8,0.1,2.6,0.4s1.6,0.6,2.2,1.1s1.2,1.1,1.5,1.8S1314.5,16.7,1314.5,17.6z
				 M1309.3,18c0-0.3,0-0.6-0.1-0.9s-0.2-0.5-0.4-0.7s-0.4-0.4-0.7-0.5s-0.6-0.2-0.9-0.2c-0.2,0-0.3,0-0.5,0s-0.3,0-0.4,0.1
				l-0.2,4.4h0.3c0.3,0,0.7,0,1-0.1s0.7-0.2,0.9-0.4s0.5-0.4,0.7-0.7S1309.3,18.4,1309.3,18z"/>
		</g>
		<path fill="#2B3990" d="M1337.2,26.4c-0.1,0-0.2,0-0.4,0c0,0,0,0,0,0c-0.4-0.1-0.6-0.2-0.9-0.5c-1-1-2-2-3-3c0,0,0-0.1-0.1-0.1
			c0,0,0,0-0.1,0c0,0,0,0.1-0.1,0.1c-1,1-2,2-3.1,3.1c-0.2,0.2-0.5,0.4-0.8,0.4c0,0-0.1,0-0.1,0c-0.1,0-0.2,0-0.4,0c0,0,0,0-0.1,0
			c-0.6-0.1-1-0.5-1.2-1.1c0-0.1,0-0.1,0-0.2c0-0.1,0-0.2,0-0.4c0,0,0,0,0,0c0.1-0.4,0.2-0.6,0.5-0.9c1-1,2-2,3-3c0,0,0.1,0,0.1-0.1
			c-0.1-0.1-0.1-0.1-0.1-0.1c-1-1-2-2-3-3c-0.2-0.2-0.4-0.4-0.5-0.7c0-0.1,0-0.2-0.1-0.2c0-0.1,0-0.2,0-0.4c0,0,0,0,0-0.1
			c0.1-0.4,0.3-0.7,0.7-1c0.6-0.4,1.3-0.3,1.8,0.2c1,1,2.1,2.1,3.1,3.1c0,0,0.1,0.1,0.1,0.1c0,0,0.1-0.1,0.1-0.1
			c1-1,2.1-2.1,3.1-3.1c0.6-0.6,1.7-0.6,2.2,0.2c0.4,0.6,0.3,1.4-0.2,1.9c-1,1-2.1,2.1-3.1,3.1c0,0-0.1,0.1-0.1,0.1
			c0,0,0.1,0.1,0.1,0.1c0.2,0.2,0.5,0.5,0.7,0.7c0.8,0.8,1.6,1.6,2.4,2.4c0.4,0.4,0.5,0.9,0.4,1.4c-0.2,0.5-0.5,0.9-1.1,1
			C1337.3,26.3,1337.3,26.3,1337.2,26.4z"/>
	</g>
	<path display="inline" fill="#F2ECE1" d="M113.6-28v47.2c0,10-2.1,18.1-4.7,18.1H20.4c-2.6,0-4.7-8.1-4.7-18.1V-28H113.6z"/>
	<g display="inline">
		<path fill="#2B3990" d="M49.2,12.5l-0.7,4.9c-0.2-0.1-0.5-0.1-0.7-0.1s-0.5,0-0.7,0c-0.6,0-1.1,0.1-1.7,0.2s-1,0.4-1.4,0.7
			s-0.7,0.7-1,1.2s-0.4,1-0.4,1.7c0,0.4,0.1,0.8,0.2,1.1s0.3,0.5,0.5,0.7s0.5,0.3,0.8,0.4s0.7,0.1,1.1,0.1c0.3,0,0.6,0,0.9-0.1
			s0.6-0.1,0.9-0.2s0.6-0.2,0.9-0.4s0.6-0.3,0.8-0.4l-0.5,5.5c-0.3,0.2-0.6,0.3-1,0.4s-0.7,0.2-1.1,0.3s-0.8,0.2-1.1,0.2
			s-0.7,0.1-1.1,0.1c-1,0-1.9-0.2-2.8-0.6s-1.6-0.9-2.2-1.5s-1.1-1.4-1.5-2.3s-0.5-1.8-0.5-2.8c0-1.3,0.2-2.6,0.6-3.8
			s0.9-2.2,1.7-3.1s1.7-1.6,2.8-2.1s2.4-0.8,3.8-0.8c0.5,0,1.1,0,1.7,0.1S48.7,12.2,49.2,12.5z"/>
		<path fill="#2B3990" d="M64.7,27.9l-5.8,0.8L58.2,26h-2.7l-0.6,2.6l-6-0.6l4.7-15.6l6.5-0.3L64.7,27.9z M57.8,22.5l-0.9-4.1
			L56,22.5H57.8z"/>
		<path fill="#2B3990" d="M77,22.7c0,1.1-0.2,2-0.6,2.8s-0.9,1.5-1.5,2s-1.4,0.9-2.3,1.2s-1.8,0.4-2.8,0.4c-0.4,0-0.8-0.1-1.3-0.2
			s-0.9-0.2-1.4-0.4s-0.9-0.3-1.4-0.5s-0.8-0.3-1.2-0.5l0.5-4.8c0.7,0.4,1.4,0.7,2.2,0.9S69,24,69.8,24c0.1,0,0.3,0,0.5,0
			s0.4,0,0.6-0.1s0.4-0.1,0.5-0.3s0.2-0.3,0.2-0.5c0-0.1,0-0.3-0.1-0.4s-0.2-0.2-0.4-0.3s-0.3-0.1-0.5-0.2s-0.4-0.1-0.6-0.1
			s-0.3,0-0.5,0s-0.3,0-0.4,0c-0.7,0-1.3-0.1-1.8-0.4s-1-0.6-1.4-1s-0.7-0.9-0.9-1.5s-0.3-1.2-0.3-1.9c0-0.9,0.2-1.7,0.6-2.5
			s0.9-1.4,1.5-1.9s1.3-0.9,2.1-1.2s1.6-0.4,2.5-0.4c0.4,0,0.8,0,1.2,0s0.8,0.1,1.2,0.1s0.8,0.2,1.2,0.3s0.7,0.2,1.1,0.4l-0.4,4.8
			c-0.5-0.2-1.1-0.3-1.7-0.5s-1.2-0.2-1.7-0.2c-0.1,0-0.2,0-0.4,0s-0.3,0-0.5,0s-0.4,0-0.5,0.1s-0.3,0.1-0.5,0.2S70,17,69.9,17.1
			s-0.1,0.2-0.1,0.4c0,0.2,0.1,0.3,0.2,0.4s0.3,0.2,0.5,0.2s0.4,0.1,0.6,0.1s0.5,0,0.7,0s0.4,0,0.6,0s0.4,0,0.5,0
			c0.6,0,1.2,0.2,1.7,0.4s0.9,0.5,1.3,0.9s0.6,0.8,0.8,1.3S77,22.1,77,22.7z"/>
		<path fill="#2B3990" d="M92.3,27.9l-5.8,0.8L85.8,26h-2.7l-0.6,2.6l-6-0.6l4.7-15.6l6.5-0.3L92.3,27.9z M85.4,22.5l-0.9-4.1
			l-0.9,4.1H85.4z"/>
	</g>
	<g display="inline">
		<path fill="#2B3990" d="M1185.5,762.9l-4.8,0.6l-0.6-2.2h-2.2l-0.5,2.2l-5-0.5l3.9-13l5.4-0.3L1185.5,762.9z M1179.7,758.4
			l-0.7-3.4l-0.7,3.4H1179.7z"/>
		<path fill="#2B3990" d="M1195,755.7c0,0.4,0,0.8,0,1.1s0,0.8-0.1,1.1c-0.1,0.8-0.2,1.6-0.5,2.3s-0.7,1.4-1.1,1.9s-1.1,1-1.7,1.3
			s-1.5,0.5-2.4,0.5c-0.3,0-0.7,0-1.1-0.1s-0.7-0.1-1.1-0.3s-0.7-0.3-1.1-0.4s-0.6-0.4-0.9-0.6l0.6-4c0.4,0.4,0.8,0.7,1.3,0.9
			s1,0.3,1.5,0.3c0.4,0,0.7-0.1,0.9-0.2s0.5-0.2,0.6-0.4s0.3-0.4,0.4-0.6s0.2-0.5,0.2-0.8s0.1-0.6,0.1-0.9s0-0.6,0-0.9
			c0-1-0.1-2.1-0.2-3.1s-0.2-2.1-0.3-3.1l4.5-0.3C1194.9,751.7,1195,753.7,1195,755.7z"/>
		<path fill="#2B3990" d="M1207.5,752.9c0,0.5,0,1-0.1,1.6s-0.1,1.2-0.2,1.8s-0.2,1.2-0.4,1.9s-0.4,1.2-0.6,1.8s-0.5,1.1-0.9,1.6
			s-0.7,1-1.1,1.3s-0.9,0.7-1.4,0.9s-1.1,0.3-1.8,0.3c-0.8,0-1.4-0.1-2-0.4s-1-0.6-1.4-1s-0.7-0.9-1-1.4s-0.5-1.1-0.6-1.7
			s-0.2-1.2-0.3-1.9s-0.1-1.3-0.1-1.9c0-0.9,0-1.8,0.1-2.7s0.2-1.8,0.4-2.7l4.6,0.2c-0.2,1-0.3,2-0.5,3.1s-0.2,2.1-0.2,3.1
			c0,0.1,0,0.3,0,0.5s0,0.5,0.1,0.7s0.1,0.5,0.1,0.8s0.1,0.5,0.2,0.8s0.2,0.4,0.3,0.6s0.3,0.2,0.4,0.2c0.2,0,0.4-0.1,0.5-0.3
			s0.3-0.4,0.4-0.7s0.2-0.6,0.3-1s0.2-0.8,0.2-1.2s0.1-0.8,0.1-1.3s0.1-0.8,0.1-1.2s0-0.7,0-1s0-0.5,0-0.6c0-0.5,0-1,0-1.5
			s0-1-0.1-1.5h4.6C1207.5,751.1,1207.5,752,1207.5,752.9z"/>
		<path fill="#2B3990" d="M1219.4,756c0,0.9-0.1,1.7-0.4,2.5s-0.6,1.4-1,2s-0.9,1.1-1.5,1.5s-1.2,0.7-1.9,1s-1.4,0.5-2.2,0.6
			s-1.6,0.2-2.4,0.2c-0.3,0-0.6,0-0.9,0s-0.6,0-0.9-0.1l0.3-13.1c0.7-0.2,1.5-0.4,2.2-0.5s1.5-0.1,2.3-0.1c0.9,0,1.8,0.1,2.6,0.4
			s1.5,0.7,2,1.2s1,1.2,1.3,1.9S1219.4,755.1,1219.4,756z M1215.4,756.7c0-0.4,0-0.7-0.1-1s-0.2-0.6-0.4-0.9s-0.4-0.5-0.7-0.6
			s-0.6-0.2-1-0.2l-0.4,6.1c0.4-0.1,0.7-0.2,1.1-0.4s0.6-0.4,0.8-0.7s0.4-0.6,0.5-1s0.2-0.7,0.2-1.1V756.7z"/>
		<path fill="#2B3990" d="M1231.8,762.9l-4.8,0.6l-0.6-2.2h-2.2l-0.5,2.2l-5-0.5l3.9-13l5.4-0.3L1231.8,762.9z M1226,758.4l-0.7-3.4
			l-0.7,3.4H1226z"/>
	</g>
	<g display="inline">
		<g>
			<g>
				<g>
					<path fill="#2B3990" d="M1252,747.3c4.6,0,8.3,3.7,8.3,8.3c0,4.6-3.7,8.3-8.3,8.3c-4.6,0-8.3-3.7-8.3-8.3
						C1243.7,751,1247.5,747.3,1252,747.3z M1252,748.6c-3.9,0-7,3.1-7,7c0,3.9,3.1,7,7,7c3.9,0,7-3.1,7-7
						C1259,751.7,1255.9,748.6,1252,748.6z"/>
					<path fill="#2B3990" d="M1252.6,757.5c-0.4,0-0.8,0-1.3,0c0-0.1,0-0.2,0-0.3c0.1-0.4,0.2-0.7,0.5-1c0.2-0.2,0.5-0.3,0.7-0.5
						c0.2-0.1,0.4-0.2,0.7-0.3c0.5-0.3,0.7-0.8,0.7-1.4c-0.1-0.7-0.5-1.2-1.1-1.5c-1-0.3-2,0.3-2.2,1.3c0,0.1,0,0.2,0,0.3
						c-0.4,0-0.8,0-1.3,0c0-0.2,0-0.3,0.1-0.5c0.2-1.1,0.8-1.8,1.8-2.2c0.4-0.2,0.9-0.3,1.4-0.2c1.3,0.1,2.3,1,2.6,2.2
						c0.3,1.1,0,2-0.8,2.8c-0.3,0.3-0.6,0.5-1,0.6c-0.1,0.1-0.2,0.1-0.4,0.2C1252.7,757.1,1252.6,757.3,1252.6,757.5
						C1252.7,757.5,1252.7,757.5,1252.6,757.5C1252.7,757.5,1252.7,757.5,1252.6,757.5z"/>
				</g>
			</g>
			<path fill="#2B3990" d="M1252.6,760.1c-0.4,0-0.8,0-1.3,0c0-0.4,0-0.8,0-1.3c0.4,0,0.8,0,1.3,0
				C1252.6,759.2,1252.6,759.7,1252.6,760.1z"/>
		</g>
	</g>
	<g display="inline">
		<g>
			<path fill="#2B3990" d="M1061.9,757.1c0,0.6-0.1,1.2-0.2,1.7s-0.3,1.1-0.6,1.5s-0.6,0.9-0.9,1.3s-0.8,0.7-1.2,1s-1,0.5-1.5,0.7
				s-1.1,0.2-1.7,0.2c-0.6,0-1.1-0.1-1.7-0.2s-1-0.4-1.5-0.6s-0.9-0.6-1.3-1s-0.7-0.8-1-1.3s-0.5-1-0.6-1.5s-0.2-1.1-0.2-1.7
				c0-0.6,0.1-1.1,0.2-1.7s0.3-1.1,0.6-1.5s0.6-0.9,0.9-1.3s0.8-0.8,1.2-1s0.9-0.5,1.5-0.7s1.1-0.2,1.7-0.2c0.9,0,1.8,0.1,2.6,0.4
				s1.4,0.7,2,1.3s1,1.2,1.3,2S1061.9,756.1,1061.9,757.1z M1057.6,757.3c0-0.3,0-0.6-0.1-0.8s-0.2-0.5-0.4-0.7s-0.3-0.4-0.6-0.5
				s-0.5-0.2-0.8-0.2c-0.3,0-0.6,0.1-0.8,0.2s-0.4,0.3-0.6,0.5s-0.3,0.4-0.4,0.7s-0.1,0.5-0.1,0.8c0,0.3,0,0.5,0.1,0.8
				s0.2,0.5,0.4,0.7s0.3,0.4,0.6,0.5s0.5,0.2,0.8,0.2s0.6-0.1,0.8-0.2s0.5-0.3,0.6-0.5s0.3-0.4,0.4-0.7S1057.6,757.6,1057.6,757.3z"
				/>
			<path fill="#2B3990" d="M1074,754.6c0,0.6-0.1,1.2-0.3,1.7s-0.4,0.9-0.8,1.3s-0.7,0.7-1.2,0.9s-0.9,0.5-1.4,0.6s-1,0.3-1.6,0.4
				s-1.1,0.1-1.6,0.1v4.6h-4.6c0-1.5,0-3,0-4.5s0-3,0-4.5c0-0.8,0-1.6,0-2.4s0-1.6,0-2.4c0.8-0.2,1.7-0.4,2.5-0.6s1.7-0.2,2.6-0.2
				c0.5,0,1,0,1.5,0.1s1,0.2,1.4,0.4s0.9,0.4,1.3,0.7s0.7,0.6,1,0.9s0.5,0.8,0.7,1.2S1074,754,1074,754.6z M1069.7,754.9
				c0-0.4-0.1-0.8-0.4-1s-0.6-0.4-1-0.4c-0.1,0-0.3,0-0.4,0s-0.3,0.1-0.4,0.1l-0.1,2.9c0.1,0,0.2,0,0.3,0s0.2,0,0.3,0
				c0.2,0,0.5,0,0.7-0.1s0.4-0.2,0.6-0.3s0.3-0.3,0.4-0.5S1069.7,755.2,1069.7,754.9z"/>
			<path fill="#2B3990" d="M1082.2,766.3c0,0.4-0.1,0.7-0.2,1s-0.3,0.5-0.5,0.6s-0.5,0.3-0.8,0.4s-0.6,0.1-1,0.1c-0.1,0-0.3,0-0.4,0
				s-0.3,0-0.5-0.1s-0.3-0.1-0.5-0.1s-0.3-0.1-0.4-0.2l0.9-1.5c0.1,0,0.2,0.1,0.3,0.1s0.2,0,0.3,0c0.1,0,0.2,0,0.4-0.1
				s0.2-0.2,0.2-0.3c0-0.1,0-0.2-0.1-0.2s-0.1-0.1-0.2-0.2s-0.2-0.1-0.3-0.1s-0.2,0-0.3,0c-0.1,0-0.3,0-0.4,0s-0.3,0-0.4,0.1
				l0.1-2.1c-0.6-0.2-1.2-0.4-1.7-0.8s-1-0.8-1.3-1.3s-0.7-1.1-0.9-1.7s-0.3-1.3-0.3-2c0-1.1,0.2-2.2,0.5-3.1s0.8-1.9,1.4-2.6
				s1.4-1.3,2.3-1.8s2-0.6,3.2-0.6c0.4,0,0.9,0,1.4,0.1s0.9,0.2,1.3,0.4l-0.5,4.1c-0.2-0.1-0.4-0.1-0.6-0.1s-0.4,0-0.6,0
				c-0.5,0-0.9,0.1-1.4,0.2s-0.8,0.3-1.2,0.6s-0.6,0.6-0.8,1s-0.3,0.8-0.3,1.4c0,0.3,0.1,0.6,0.2,0.9s0.3,0.5,0.5,0.6
				s0.4,0.3,0.7,0.4s0.6,0.1,0.9,0.1c0.2,0,0.5,0,0.8-0.1s0.5-0.1,0.8-0.2s0.5-0.2,0.7-0.3s0.5-0.2,0.7-0.3l-0.4,4.6
				c-0.2,0.1-0.5,0.2-0.8,0.3s-0.6,0.2-0.9,0.3s-0.6,0.1-0.9,0.2s-0.6,0.1-0.9,0.1v0.5c0.3,0,0.6,0.1,0.8,0.2s0.5,0.2,0.6,0.4
				s0.3,0.4,0.4,0.6S1082.2,766,1082.2,766.3z"/>
			<path fill="#2B3990" d="M1096.8,757.1c0,0.6-0.1,1.2-0.2,1.7s-0.3,1.1-0.6,1.5s-0.6,0.9-0.9,1.3s-0.8,0.7-1.2,1s-1,0.5-1.5,0.7
				s-1.1,0.2-1.7,0.2c-0.6,0-1.1-0.1-1.7-0.2s-1-0.4-1.5-0.6s-0.9-0.6-1.3-1s-0.7-0.8-1-1.3s-0.5-1-0.6-1.5s-0.2-1.1-0.2-1.7
				c0-0.6,0.1-1.1,0.2-1.7s0.3-1.1,0.6-1.5s0.6-0.9,0.9-1.3s0.8-0.8,1.2-1s0.9-0.5,1.5-0.7s1.1-0.2,1.7-0.2c0.9,0,1.8,0.1,2.6,0.4
				s1.4,0.7,2,1.3s1,1.2,1.3,2S1096.8,756.1,1096.8,757.1z M1094.5,747.7c0,0.4-0.1,0.7-0.2,1.1s-0.3,0.6-0.6,0.8s-0.5,0.4-0.8,0.6
				s-0.7,0.2-1,0.2c-0.3,0-0.5-0.1-0.7-0.2s-0.4-0.2-0.5-0.4s-0.3-0.3-0.4-0.5s-0.2-0.4-0.3-0.5s-0.2-0.3-0.3-0.4s-0.2-0.2-0.3-0.2
				c-0.1,0-0.1,0-0.2,0.1s-0.1,0.1-0.1,0.2s-0.1,0.1-0.1,0.2s0,0.1,0,0.2c0,0.2,0,0.4,0.1,0.6s0.1,0.4,0.2,0.5l-2.4,0.2
				c-0.1-0.3-0.1-0.5-0.2-0.8s0-0.5,0-0.8c0-0.4,0.1-0.8,0.2-1.1s0.3-0.6,0.5-0.9s0.5-0.5,0.8-0.6s0.7-0.2,1.1-0.2
				c0.4,0,0.7,0.1,0.9,0.2s0.4,0.2,0.6,0.4s0.3,0.3,0.4,0.5s0.2,0.4,0.2,0.5s0.1,0.3,0.2,0.4s0.1,0.2,0.3,0.2c0.1,0,0.2-0.1,0.3-0.2
				s0.1-0.2,0.1-0.4c0-0.2,0-0.4-0.1-0.6s-0.2-0.4-0.3-0.5l2.4-0.4c0.1,0.3,0.2,0.6,0.3,0.9S1094.5,747.4,1094.5,747.7z
				 M1092.5,757.3c0-0.3,0-0.6-0.1-0.8s-0.2-0.5-0.4-0.7s-0.3-0.4-0.6-0.5s-0.5-0.2-0.8-0.2c-0.3,0-0.6,0.1-0.8,0.2
				s-0.4,0.3-0.6,0.5s-0.3,0.4-0.4,0.7s-0.1,0.5-0.1,0.8c0,0.3,0,0.5,0.1,0.8s0.2,0.5,0.4,0.7s0.3,0.4,0.6,0.5s0.5,0.2,0.8,0.2
				s0.6-0.1,0.8-0.2s0.5-0.3,0.6-0.5s0.3-0.4,0.4-0.7S1092.5,757.6,1092.5,757.3z"/>
			<path fill="#2B3990" d="M1106.7,749.9c0,0.6-0.1,1.2-0.1,1.8s-0.1,1.2-0.1,1.8l-4.1,0.2l-0.1,1.2h2.9l-0.2,3l-2.9,0.1l-0.1,1.4
				h2.4h1.7c0,0.7-0.1,1.4-0.1,2.1s-0.1,1.4-0.1,2.1l-8.4,0.2l0.3-14.1H1106.7z"/>
			<path fill="#2B3990" d="M1117.1,758.8c0,0.9-0.2,1.7-0.5,2.3s-0.7,1.2-1.3,1.7s-1.2,0.8-1.9,1s-1.5,0.3-2.3,0.3
				c-0.3,0-0.7,0-1-0.1s-0.8-0.2-1.2-0.3s-0.8-0.3-1.1-0.4s-0.7-0.3-1-0.4l0.4-4c0.6,0.3,1.2,0.6,1.8,0.8s1.3,0.3,2,0.3
				c0.1,0,0.3,0,0.4,0s0.3,0,0.5-0.1s0.3-0.1,0.4-0.2s0.2-0.2,0.2-0.4c0-0.1,0-0.2-0.1-0.3s-0.2-0.2-0.3-0.2s-0.3-0.1-0.4-0.1
				s-0.3-0.1-0.5-0.1s-0.3,0-0.4,0s-0.2,0-0.3,0c-0.6,0-1.1-0.1-1.5-0.3s-0.9-0.5-1.2-0.8s-0.6-0.8-0.8-1.2s-0.3-1-0.3-1.6
				c0-0.8,0.2-1.5,0.5-2.1s0.7-1.1,1.2-1.6s1.1-0.8,1.8-1s1.4-0.3,2.1-0.3c0.3,0,0.6,0,1,0s0.7,0.1,1,0.1s0.7,0.1,1,0.2
				s0.6,0.2,0.9,0.3l-0.4,4c-0.4-0.1-0.9-0.3-1.4-0.4s-1-0.2-1.4-0.2c-0.1,0-0.2,0-0.3,0s-0.3,0-0.4,0s-0.3,0-0.4,0.1
				s-0.3,0.1-0.4,0.1s-0.2,0.1-0.3,0.2s-0.1,0.2-0.1,0.3c0,0.1,0.1,0.3,0.2,0.3s0.2,0.2,0.4,0.2s0.3,0.1,0.5,0.1s0.4,0,0.6,0
				s0.4,0,0.5,0s0.3,0,0.4,0c0.5,0,1,0.1,1.4,0.3s0.8,0.4,1.1,0.8s0.5,0.7,0.7,1.1S1117.1,758.3,1117.1,758.8z"/>
		</g>
		<path fill="#2B3990" d="M1128.6,749.1c0.3,0.1,0.6,0.2,0.8,0.3c0.5,0.2,0.9,0.4,1.4,0.5c0.1,0,0.1,0,0.2,0
			c0.2-0.1,0.3-0.1,0.5-0.2c0.1,0,0.1-0.1,0.2-0.2c0.2-0.6,0.5-1.1,0.7-1.7c0,0,0-0.1,0.1-0.1c0.1-0.2,0.3-0.3,0.5-0.3
			c0.5,0,1.1,0,1.6,0c0.2,0,0.3,0.1,0.4,0.2c0.2,0.3,0.3,0.6,0.5,0.9c0.2,0.3,0.3,0.7,0.4,1c0,0.1,0.1,0.1,0.1,0.1
			c0.2,0.1,0.3,0.1,0.5,0.2c0.1,0,0.1,0,0.2,0c0.5-0.2,1.1-0.5,1.6-0.7c0.2-0.1,0.4-0.1,0.5-0.1c0.1,0,0.1,0,0.2,0.1
			c0.4,0.4,0.9,0.9,1.3,1.3c0.1,0.1,0.1,0.2,0.1,0.3c-0.1,0.3-0.2,0.7-0.4,1c-0.1,0.3-0.3,0.7-0.4,1c0,0.1,0,0.1,0,0.2
			c0,0.1,0.1,0.1,0.1,0.2c0.1,0.3,0.3,0.5,0.6,0.6c0.5,0.2,1,0.4,1.5,0.6c0.1,0,0.1,0.1,0.2,0.1c0.2,0.1,0.3,0.2,0.2,0.4
			c0,0.5,0,1.1,0,1.6c0,0.2-0.1,0.3-0.2,0.4c-0.4,0.2-0.7,0.4-1.1,0.5c-0.3,0.1-0.6,0.2-0.9,0.4c-0.1,0-0.1,0.1-0.1,0.1
			c0,0,0,0.1,0,0.1c-0.2,0.3-0.2,0.6,0,1c0.2,0.4,0.4,0.9,0.6,1.3c0,0,0,0.1,0,0.1c0.1,0.2,0,0.4-0.2,0.6c-0.4,0.4-0.8,0.8-1.2,1.1
			c-0.1,0.1-0.2,0.1-0.3,0.1c-0.4-0.1-0.7-0.2-1.1-0.4c-0.3-0.1-0.7-0.3-1-0.4c-0.1,0-0.1,0-0.2,0c-0.2,0.1-0.3,0.1-0.5,0.2
			c-0.1,0-0.1,0.1-0.2,0.2c-0.2,0.6-0.5,1.1-0.7,1.7c0,0,0,0.1-0.1,0.1c-0.1,0.2-0.3,0.3-0.5,0.3c-0.5,0-1.1,0-1.6,0
			c-0.2,0-0.3-0.1-0.4-0.2c-0.2-0.4-0.4-0.7-0.5-1.1c-0.1-0.3-0.2-0.6-0.4-0.9c0,0-0.1-0.1-0.1-0.1c0,0,0,0,0,0
			c-0.2-0.1-0.4-0.2-0.6-0.2c-0.2,0-0.4,0.1-0.6,0.2c-0.5,0.2-1,0.4-1.5,0.6c-0.2,0.1-0.4,0-0.5-0.1c-0.4-0.4-0.7-0.7-1.1-1.1
			c-0.2-0.2-0.2-0.4-0.2-0.6c0.2-0.4,0.3-0.9,0.5-1.3c0.1-0.1,0.1-0.3,0.2-0.4c0.1-0.1,0.1-0.3,0-0.4c0,0,0,0,0,0
			c-0.1-0.4-0.3-0.5-0.7-0.6c-0.5-0.2-0.9-0.4-1.4-0.6c-0.1,0-0.1-0.1-0.2-0.1c-0.2-0.1-0.3-0.2-0.2-0.4c0-0.5,0-1.1,0-1.6
			c0-0.2,0.1-0.3,0.2-0.4c0.3-0.1,0.5-0.3,0.8-0.4c0.4-0.2,0.8-0.3,1.2-0.5c0.1,0,0.1-0.1,0.1-0.1c0,0,0-0.1,0-0.1
			c0.2-0.3,0.2-0.6,0-1c-0.2-0.4-0.4-0.9-0.6-1.4c0-0.1,0-0.1-0.1-0.2c0-0.1,0-0.3,0.1-0.4c0.4-0.4,0.8-0.8,1.3-1.2
			C1128.4,749.1,1128.5,749.1,1128.6,749.1z M1133.7,752.7c-1.6,0-2.9,1.3-2.9,2.9c0,1.6,1.3,2.9,2.9,2.9c1.6,0,2.9-1.3,2.9-2.9
			C1136.6,754,1135.3,752.7,1133.7,752.7z"/>
	</g>
	<g display="inline">
		<g>
			<path fill="#2B3990" d="M942.5,754.6c0,0.6-0.1,1.2-0.3,1.7s-0.4,0.9-0.8,1.3s-0.7,0.7-1.2,0.9s-0.9,0.5-1.4,0.6s-1,0.3-1.6,0.4
				s-1.1,0.1-1.6,0.1v4.6h-4.6c0-1.5,0-3,0-4.5s0-3,0-4.5c0-0.8,0-1.6,0-2.4s0-1.6,0-2.4c0.8-0.2,1.7-0.4,2.5-0.6s1.7-0.2,2.6-0.2
				c0.5,0,1,0,1.5,0.1s1,0.2,1.4,0.4s0.9,0.4,1.3,0.7s0.7,0.6,1,0.9s0.5,0.8,0.7,1.2S942.5,754,942.5,754.6z M938.2,754.9
				c0-0.4-0.1-0.8-0.4-1s-0.6-0.4-1-0.4c-0.1,0-0.3,0-0.4,0s-0.3,0.1-0.4,0.1l-0.1,2.9c0.1,0,0.2,0,0.3,0s0.2,0,0.3,0
				c0.2,0,0.5,0,0.7-0.1s0.4-0.2,0.6-0.3s0.3-0.3,0.4-0.5S938.2,755.2,938.2,754.9z"/>
			<path fill="#2B3990" d="M955.1,757.1c0,0.6-0.1,1.2-0.2,1.7s-0.3,1.1-0.6,1.5s-0.6,0.9-0.9,1.3s-0.8,0.7-1.2,1s-1,0.5-1.5,0.7
				s-1.1,0.2-1.7,0.2c-0.6,0-1.1-0.1-1.7-0.2s-1-0.4-1.5-0.6s-0.9-0.6-1.3-1s-0.7-0.8-1-1.3s-0.5-1-0.6-1.5s-0.2-1.1-0.2-1.7
				c0-0.6,0.1-1.1,0.2-1.7s0.3-1.1,0.6-1.5s0.6-0.9,0.9-1.3s0.8-0.8,1.2-1s0.9-0.5,1.5-0.7s1.1-0.2,1.7-0.2c0.9,0,1.8,0.1,2.6,0.4
				s1.4,0.7,2,1.3s1,1.2,1.3,2S955.1,756.1,955.1,757.1z M950.8,757.3c0-0.3,0-0.6-0.1-0.8s-0.2-0.5-0.4-0.7s-0.3-0.4-0.6-0.5
				s-0.5-0.2-0.8-0.2c-0.3,0-0.6,0.1-0.8,0.2s-0.4,0.3-0.6,0.5s-0.3,0.4-0.4,0.7s-0.1,0.5-0.1,0.8c0,0.3,0,0.5,0.1,0.8
				s0.2,0.5,0.4,0.7s0.3,0.4,0.6,0.5s0.5,0.2,0.8,0.2s0.6-0.1,0.8-0.2s0.5-0.3,0.6-0.5s0.3-0.4,0.4-0.7S950.8,757.6,950.8,757.3z"/>
			<path fill="#2B3990" d="M969.1,750l-0.7,13.2l-5.1,0.5l-2.7-7.1l-0.4,7.2h-4.4L956,750l4.9-0.2l3.4,7l0.2-6.6L969.1,750z"/>
			<path fill="#2B3990" d="M980.2,750l-0.1,4.1l-2.9,0.1l-0.7,9.3l-4.1,0.2l0-9.3l-2.9,0.2l0.1-4.6L980.2,750z"/>
			<path fill="#2B3990" d="M992.4,757.1c0,0.6-0.1,1.2-0.2,1.7s-0.3,1.1-0.6,1.5s-0.6,0.9-0.9,1.3s-0.8,0.7-1.2,1s-1,0.5-1.5,0.7
				s-1.1,0.2-1.7,0.2c-0.6,0-1.1-0.1-1.7-0.2s-1-0.4-1.5-0.6s-0.9-0.6-1.3-1s-0.7-0.8-1-1.3s-0.5-1-0.6-1.5s-0.2-1.1-0.2-1.7
				c0-0.6,0.1-1.1,0.2-1.7s0.3-1.1,0.6-1.5s0.6-0.9,0.9-1.3s0.8-0.8,1.2-1s0.9-0.5,1.5-0.7s1.1-0.2,1.7-0.2c0.9,0,1.8,0.1,2.6,0.4
				s1.4,0.7,2,1.3s1,1.2,1.3,2S992.4,756.1,992.4,757.1z M988.1,757.3c0-0.3,0-0.6-0.1-0.8s-0.2-0.5-0.4-0.7s-0.3-0.4-0.6-0.5
				s-0.5-0.2-0.8-0.2c-0.3,0-0.6,0.1-0.8,0.2s-0.4,0.3-0.6,0.5s-0.3,0.4-0.4,0.7s-0.1,0.5-0.1,0.8c0,0.3,0,0.5,0.1,0.8
				s0.2,0.5,0.4,0.7s0.3,0.4,0.6,0.5s0.5,0.2,0.8,0.2s0.6-0.1,0.8-0.2s0.5-0.3,0.6-0.5s0.3-0.4,0.4-0.7S988.1,757.6,988.1,757.3z"/>
			<path fill="#2B3990" d="M1003,758.8c0,0.9-0.2,1.7-0.5,2.3s-0.7,1.2-1.3,1.7s-1.2,0.8-1.9,1s-1.5,0.3-2.3,0.3c-0.3,0-0.7,0-1-0.1
				s-0.8-0.2-1.2-0.3s-0.8-0.3-1.1-0.4s-0.7-0.3-1-0.4l0.4-4c0.6,0.3,1.2,0.6,1.8,0.8s1.3,0.3,2,0.3c0.1,0,0.3,0,0.4,0
				s0.3,0,0.5-0.1s0.3-0.1,0.4-0.2s0.2-0.2,0.2-0.4c0-0.1,0-0.2-0.1-0.3s-0.2-0.2-0.3-0.2s-0.3-0.1-0.4-0.1s-0.3-0.1-0.5-0.1
				s-0.3,0-0.4,0s-0.2,0-0.3,0c-0.6,0-1.1-0.1-1.5-0.3s-0.9-0.5-1.2-0.8s-0.6-0.8-0.8-1.2s-0.3-1-0.3-1.6c0-0.8,0.2-1.5,0.5-2.1
				s0.7-1.1,1.2-1.6s1.1-0.8,1.8-1s1.4-0.3,2.1-0.3c0.3,0,0.6,0,1,0s0.7,0.1,1,0.1s0.7,0.1,1,0.2s0.6,0.2,0.9,0.3l-0.4,4
				c-0.4-0.1-0.9-0.3-1.4-0.4s-1-0.2-1.4-0.2c-0.1,0-0.2,0-0.3,0s-0.3,0-0.4,0s-0.3,0-0.4,0.1s-0.3,0.1-0.4,0.1s-0.2,0.1-0.3,0.2
				s-0.1,0.2-0.1,0.3c0,0.1,0.1,0.3,0.2,0.3s0.2,0.2,0.4,0.2s0.3,0.1,0.5,0.1s0.4,0,0.6,0s0.4,0,0.5,0s0.3,0,0.4,0
				c0.5,0,1,0.1,1.4,0.3s0.8,0.4,1.1,0.8s0.5,0.7,0.7,1.1S1003,758.3,1003,758.8z"/>
		</g>
		<g>
			<path fill="#2B3990" d="M1021.1,748.1c0,0,0.1,0,0.1,0c0.4,0.1,0.6,0.4,0.7,0.8c0.1,0.4-0.1,0.8-0.5,1c-0.1,0.1-0.1,0.1-0.1,0.3
				c0.3,1.2,0.5,2.3,0.8,3.5c0.1,0.5,0.4,0.8,0.8,0.9c0.4,0.1,0.8-0.1,1-0.5c0.2-0.3,0.4-0.6,0.6-0.9c-0.5-0.5-0.5-1-0.2-1.4
				c0.3-0.4,0.8-0.5,1.2-0.4c0.4,0.2,0.7,0.6,0.6,1.1c-0.1,0.6-0.5,0.8-1.2,0.9c0,0.3-0.1,0.5-0.1,0.8c0,0.3-0.1,0.5-0.1,0.8
				c-0.1,0.4,0.1,0.8,0.4,1c0.3,0.2,0.7,0.3,1.1,0c0.6-0.4,1.1-0.8,1.6-1.2c-0.2-0.3-0.2-0.6-0.2-0.9c0.1-0.2,0.2-0.4,0.4-0.6
				c0.3-0.3,0.9-0.3,1.2,0c0.4,0.3,0.5,0.8,0.3,1.2c-0.2,0.5-0.6,0.7-1.3,0.6c-0.1,0.3-0.2,0.6-0.3,1c-0.4,1.2-0.9,2.5-1.3,3.7
				c0,0.1-0.1,0.2-0.2,0.2c-3.8,0-7.5,0-11.3,0c-0.1,0-0.2-0.1-0.2-0.2c-0.5-1.5-1.1-3-1.6-4.5c0-0.1,0-0.1-0.1-0.2
				c-0.3,0.1-0.6,0.1-0.9-0.1c-0.2-0.1-0.3-0.3-0.4-0.5c-0.1-0.4,0-0.9,0.4-1.2c0.4-0.2,0.9-0.2,1.2,0.1c0.4,0.3,0.5,0.8,0.2,1.4
				c0.2,0.2,0.5,0.3,0.7,0.5c0.3,0.2,0.5,0.4,0.8,0.6c0.4,0.3,0.8,0.3,1.2,0.1c0.4-0.2,0.6-0.6,0.5-1.1c-0.1-0.5-0.2-1-0.2-1.5
				c-0.7-0.1-1.1-0.4-1.2-0.9c-0.1-0.5,0.2-0.9,0.6-1.1c0.4-0.2,0.9,0,1.2,0.4c0.3,0.4,0.2,0.9-0.2,1.4c0.3,0.4,0.5,0.8,0.8,1.1
				c0.5,0.6,1.5,0.3,1.7-0.5c0.2-1,0.4-2,0.7-2.9c0.1-0.2,0.1-0.5,0.2-0.7c0-0.1,0-0.1-0.1-0.2c-0.4-0.2-0.6-0.6-0.5-1.1
				c0.1-0.4,0.3-0.7,0.8-0.8c0,0,0,0,0,0C1020.9,748.1,1021,748.1,1021.1,748.1z"/>
			<path fill="#2B3990" d="M1015.2,763.2c0-0.7,0-1.3,0-2c3.8,0,7.7,0,11.5,0c0,0.7,0,1.3,0,2C1022.8,763.2,1019,763.2,1015.2,763.2
				z"/>
		</g>
	</g>
	<g display="inline">
		<g>
			<path fill="#2B3990" d="M834.6,753.3l-4.5,6h4.3l-0.1,4.1l-8.7,0.4l-0.4-3.8l5.1-6.6l-4.7,0.4l0-3.9h8.8L834.6,753.3z"/>
			<path fill="#2B3990" d="M847.1,757.1c0,0.6-0.1,1.2-0.2,1.7s-0.3,1.1-0.6,1.5s-0.6,0.9-0.9,1.3s-0.8,0.7-1.2,1s-1,0.5-1.5,0.7
				s-1.1,0.2-1.7,0.2c-0.6,0-1.1-0.1-1.7-0.2s-1-0.4-1.5-0.6s-0.9-0.6-1.3-1s-0.7-0.8-1-1.3s-0.5-1-0.6-1.5s-0.2-1.1-0.2-1.7
				c0-0.6,0.1-1.1,0.2-1.7s0.3-1.1,0.6-1.5s0.6-0.9,0.9-1.3s0.8-0.8,1.2-1s0.9-0.5,1.5-0.7s1.1-0.2,1.7-0.2c0.9,0,1.8,0.1,2.6,0.4
				s1.4,0.7,2,1.3s1,1.2,1.3,2S847.1,756.1,847.1,757.1z M842.8,757.3c0-0.3,0-0.6-0.1-0.8s-0.2-0.5-0.4-0.7s-0.3-0.4-0.6-0.5
				s-0.5-0.2-0.8-0.2c-0.3,0-0.6,0.1-0.8,0.2s-0.4,0.3-0.6,0.5s-0.3,0.4-0.4,0.7s-0.1,0.5-0.1,0.8c0,0.3,0,0.5,0.1,0.8
				s0.2,0.5,0.4,0.7s0.3,0.4,0.6,0.5s0.5,0.2,0.8,0.2s0.6-0.1,0.8-0.2s0.5-0.3,0.6-0.5s0.3-0.4,0.4-0.7S842.8,757.6,842.8,757.3z"/>
			<path fill="#2B3990" d="M859.9,757.1c0,0.6-0.1,1.2-0.2,1.7s-0.3,1.1-0.6,1.5s-0.6,0.9-0.9,1.3s-0.8,0.7-1.2,1s-1,0.5-1.5,0.7
				s-1.1,0.2-1.7,0.2c-0.6,0-1.1-0.1-1.7-0.2s-1-0.4-1.5-0.6s-0.9-0.6-1.3-1s-0.7-0.8-1-1.3s-0.5-1-0.6-1.5s-0.2-1.1-0.2-1.7
				c0-0.6,0.1-1.1,0.2-1.7s0.3-1.1,0.6-1.5s0.6-0.9,0.9-1.3s0.8-0.8,1.2-1s0.9-0.5,1.5-0.7s1.1-0.2,1.7-0.2c0.9,0,1.8,0.1,2.6,0.4
				s1.4,0.7,2,1.3s1,1.2,1.3,2S859.9,756.1,859.9,757.1z M855.6,757.3c0-0.3,0-0.6-0.1-0.8s-0.2-0.5-0.4-0.7s-0.3-0.4-0.6-0.5
				s-0.5-0.2-0.8-0.2c-0.3,0-0.6,0.1-0.8,0.2s-0.4,0.3-0.6,0.5s-0.3,0.4-0.4,0.7s-0.1,0.5-0.1,0.8c0,0.3,0,0.5,0.1,0.8
				s0.2,0.5,0.4,0.7s0.3,0.4,0.6,0.5s0.5,0.2,0.8,0.2s0.6-0.1,0.8-0.2s0.5-0.3,0.6-0.5s0.3-0.4,0.4-0.7S855.6,757.6,855.6,757.3z"/>
			<path fill="#2B3990" d="M875.7,749.7l-0.9,14.3l-4.5,0.2l0-7.6l-2,6.1h-1.7l-1.5-5.4l0,6.3l-4.5,0.1l0.2-13.5l5-0.2l2,6.5
				l2.7-6.9H875.7z"/>
		</g>
		<path fill="#2B3990" d="M900.8,757.3c0.9,0.9,1.9,1.9,2.8,2.8c0.2,0.2,0.4,0.4,0.5,0.7c0.2,0.5,0,1-0.5,1.4c-0.4,0.3-1,0.3-1.4,0
			c-0.1-0.1-0.2-0.2-0.4-0.3c-0.9-0.9-1.7-1.7-2.6-2.6c-0.2-0.2-0.3-0.2-0.5-0.1c-3.9,2.2-8.6,0-9.4-4.5c-0.6-3.4,2-6.7,5.5-7.1
			c3.1-0.4,6.3,1.8,6.9,5.2c0.2,1.4,0,2.8-0.7,4C900.9,757,900.9,757.1,900.8,757.3z M890.8,753.8c0,2.6,2.1,4.7,4.8,4.7
			c2.6,0,4.8-2.1,4.8-4.7c0-2.6-2.2-4.8-4.8-4.8C892.9,749,890.8,751.2,890.8,753.8z"/>
	</g>
</g>
<g id="ref" display="none">
</g>
<g id="Layer_5">
	<g>
		<path fill="#8CD4DE" d="M675,687.7c-99.7,0-179-18.9-241.9-57.6c-39.9-24.6-76.2-59.1-107.8-102.8
			c-25.3-34.9-48.1-75.9-69.7-125.4c-2.4-5.4-4.7-10.8-6.9-16.1c-14-32.8-27.3-63.8-47.9-86.1c-24.9-26.9-64.7-44.1-109.3-47.1
			c-39.4-2.6-82.5,4.5-135.7,22.3L-73,189.8C-8.3,168,45.9,159.5,97.4,162.9c31.9,2.1,62.4,9.3,90.4,21.1
			c31.1,13.2,57.6,31.5,79,54.6c31.2,33.7,48.9,75.2,64.6,111.8c2.2,5.1,4.4,10.4,6.7,15.5c40.7,93.3,85.9,152.9,142.2,187.5
			c52,32,121.7,46.4,213.3,44c32.5-0.8,69.8-3.6,99.5-18c25.7-12.4,43.7-34.2,45.9-55.4c3.2-32-28.3-64.4-59-80.9
			c-22.8-12.3-48.5-20.7-75.7-29.7c-22.8-7.5-46.4-15.3-69.7-25.8c-19.1-8.6-46.7-23.9-69.5-47.5c-24.3-25.3-38-55.1-39.5-86.2
			c-1.4-28.8,7.7-57.8,26.5-83.7c14.8-20.4,35.2-38.7,59-52.7c38.4-22.7,83.1-35.1,129.3-36.1c46.1-1,91.3,9.7,130.7,30.7
			c69.5,37.2,113.3,98.8,155.6,158.4c24.3,34.3,47.3,66.6,74.3,93.6c97.6,97.3,261.3,119,380.9,50.5l44.7,78.1
			c-74.5,42.7-165.1,59.6-255.2,47.6c-90.1-11.9-173.2-51.9-234-112.5c-32.5-32.4-58.8-69.4-84.2-105.2
			c-37.9-53.5-73.8-104-124.6-131.1c-52.8-28.2-120.3-26.8-171.9,3.6c-21.3,12.5-42.3,34.2-41.3,54.4c1.1,23.2,29.8,44.2,56.2,56.1
			c18.9,8.6,39.3,15.3,60.8,22.4c29.7,9.8,60.5,19.9,90.2,35.9c30.4,16.3,57.3,39.6,75.9,65.6c23.2,32.3,33.5,68.1,29.9,103.6
			c-5.3,52.4-42.2,101.3-96.3,127.4c-45.1,21.8-94.3,25.8-136.4,26.9C688.8,687.6,681.9,687.7,675,687.7z"/>
		<g>
			<path fill="#8CD4DE" d="M675,685.2c-60.8-0.1-122.3-6.8-179.7-27.9c-55.2-20.3-103.2-54.6-141.9-98.7
				c-42.6-48.4-73.3-105.8-98.6-164.7c-12.3-28.7-23.7-58.6-42.4-83.9c-15.8-21.3-37.2-36.7-61.7-46.6C87.5,238,17.3,251.9-45,272.7
				c1,0.6,2.1,1.2,3.1,1.7c-9.6-28.4-19.1-56.9-28.7-85.3c-0.6,1-1.2,2.1-1.7,3.1c93.8-31.3,199.9-43.7,288.8,9.2
				c43,25.6,72.5,64.3,94.1,108.7c20.7,42.6,37,87.1,60.9,128.1c19.8,33.9,43.5,66.1,73.1,92c26.9,23.5,58.3,40.7,92.3,51.6
				c41.9,13.4,86.3,17.9,130.1,18.4c45.1,0.5,98.2,0.8,137.7-24.3c15.7-10,30-24.8,35.1-43.1c5.2-18.4-1.6-37.2-12.5-52.2
				c-27.6-38.2-74-53.5-116.8-67.6c-46-15.2-93.1-30.2-130.6-62.3c-37.3-31.9-60.3-79.2-49.1-128.7c11.3-49.9,51.6-87.8,95.8-110.1
				c45.4-22.9,97.5-31.7,148-26.5c51.2,5.3,99.2,26.1,139.3,58.2c35.9,28.7,64.7,64.8,91.6,101.8c28.7,39.6,55.5,81.3,89.7,116.6
				c28.4,29.3,62.8,52.4,100.3,68.3c73.5,31.2,158.6,35.7,234.5,10.2c18.4-6.2,36.1-14.1,53-23.7c-1.1-0.3-2.3-0.6-3.4-0.9
				c14.9,26,29.8,52.1,44.7,78.1c0.3-1.1,0.6-2.3,0.9-3.4c-113.1,64.2-255.9,66.8-373.6,13c-56.9-26-105-64.8-144.7-112.9
				c-40.5-49.1-72.3-105.1-115.6-151.8c-19.1-20.6-40.9-39.2-66.1-51.7c-25.3-12.5-53.6-18.6-81.8-18.2
				c-28.2,0.4-56.4,7.2-81.3,20.4c-20.9,11.1-47.8,31.2-49.2,57.2c-1.4,25,24.6,43.7,43.7,54.5c28.4,16,60.7,24.6,91.3,34.9
				c63,21.2,125.1,51.5,159.1,111.8c15.5,27.6,22.9,59.9,18.1,91.5c-4.1,27.4-17,53.1-35,74c-42.3,49.3-106.4,66.8-168.9,70.7
				C705.9,684.8,690.5,685.2,675,685.2c-3.2,0-3.2,5,0,5c61.7-0.1,127.2-5,180.3-39.9c43-28.3,75.1-75.1,76.4-127.6
				c1.4-60.9-37.3-114.1-85.7-147.4c-26.9-18.6-57.6-30.9-88.3-41.5c-32.1-11.1-66.1-19.6-96.1-36c-25.4-13.8-56.3-39.1-36.7-70.1
				c16.7-26.5,49.4-41.7,78.8-48.9c29.8-7.3,61.6-6.8,91.2,1.7c29.7,8.5,55.6,25.4,78,46.4C919,270.5,951.2,327,989.8,377
				c37.7,48.7,81.7,90.1,136.2,119.4c110,59,246.6,67.1,361.8,18.3c13.7-5.8,27-12.4,39.9-19.8c1.2-0.7,1.6-2.3,0.9-3.4
				c-14.9-26-29.8-52.1-44.7-78.1c-0.7-1.2-2.3-1.6-3.4-0.9c-72.9,41.3-161.4,49.6-241.8,27.5c-40.1-11-78.3-29.7-111.1-55.5
				c-39.3-31-68.4-72.3-97.1-112.7c-51.6-72.7-107.1-147.1-194.6-177.8C747.1,62.9,635.5,79.5,567.7,148
				c-31.6,31.9-50.9,76-43,121.3c7.7,44.3,39.3,79.5,76.2,103.1c39.8,25.5,86.1,37.3,130.2,52.8c23.9,8.4,48.1,17.9,68.1,33.7
				c17.6,13.9,35.6,33.9,37.3,57.4c1.6,22.9-15.2,42.8-33.3,54.6c-21,13.7-46.5,19.1-71.1,21.8c-48.2,5.2-98.7,3.9-146.4-4.3
				c-38.5-6.6-76.2-18.8-109.1-40.2c-31.9-20.7-58.2-48.8-79.9-79.8c-27.1-38.7-47-81.5-65.6-124.8c-18.2-42.3-38.5-84.5-72.4-116.6
				c-68.9-65.3-169.5-77.2-259.3-59.4c-24.8,4.9-49.1,11.8-73.1,19.8c-1.2,0.4-2.2,1.7-1.7,3.1c9.6,28.4,19.1,56.9,28.7,85.3
				c0.4,1.2,1.7,2.2,3.1,1.7c57.6-19.2,121.6-32.7,181.1-13.5c28.7,9.3,54.4,25.9,72.1,50.6c18.1,25.3,29.3,54.9,41.5,83.2
				c46.9,108.5,116,212.2,229.1,258.9c61.5,25.4,128.8,33.3,194.9,33.5C678.2,690.2,678.2,685.2,675,685.2z"/>
		</g>
	</g>
	<circle display="none" fill="#2B3990" cx="118.6" cy="210.6" r="40.4"/>
	<circle fill="#2B3990" cx="202.3" cy="242.6" r="40.4"/>
	<circle fill="#2B3990" cx="261.8" cy="308.4" r="40.4"/>
	<circle fill="#2B3990" cx="299.7" cy="390.5" r="40.4"/>
	<circle fill="#2B3990" cx="341.7" cy="471" r="40.4"/>
	<circle fill="#2B3990" cx="396.1" cy="542.4" r="40.4"/>
	<circle fill="#2B3990" cx="466.3" cy="597.4" r="40.4"/>
	<circle fill="#2B3990" cx="549.6" cy="629.4" r="40.4"/>
	<circle fill="#2B3990" cx="639.1" cy="641.8" r="40.4"/>
	<circle fill="#2B3990" cx="729.6" cy="640.6" r="40.4"/>
	<circle fill="#2B3990" cx="816.2" cy="618.3" r="40.4"/>
	<circle fill="#2B3990" cx="877.3" cy="554.2" r="40.4"/>
	<circle fill="#2B3990" cx="870.4" cy="469.1" r="40.4"/>
	<circle fill="#2B3990" cx="805.6" cy="406" r="40.4"/>
	<circle fill="#2B3990" cx="722.3" cy="372.1" r="40.4"/>
	<circle fill="#2B3990" cx="638.2" cy="339.2" r="40.4"/>
	<circle fill="#2B3990" cx="575.8" cy="276.1" r="40.4"/>
	<circle fill="#2B3990" cx="591.1" cy="193.2" r="40.4"/>
	<circle fill="#2B3990" cx="668.8" cy="141.4" r="40.4"/>
	<circle fill="#2B3990" cx="753.1" cy="126.5" r="40.4"/>
	<circle fill="#2B3990" cx="840.2" cy="147" r="40.4"/>
	<circle fill="#2B3990" cx="911.9" cy="198.7" r="40.4"/>
	<circle fill="#2B3990" cx="969.2" cy="267.7" r="40.4"/>
	<circle fill="#2B3990" cx="1022.7" cy="341.8" r="40.4"/>
	<circle fill="#2B3990" cx="1083.1" cy="409.1" r="40.4"/>
	<circle fill="#2B3990" cx="1157.5" cy="459.3" r="40.4"/>
	<circle display="none" fill="#2B3990" cx="1242.2" cy="489.5" r="40.4"/>
	<g>
		<path fill="#F2ECE1" d="M212,226.2l-1.5,37.5l-11.5-0.5l0.6-24.9l-4.2,2.9l-4-9l8.6-6.4L212,226.2z"/>
	</g>
	<g>
		<path fill="#F2ECE1" d="M274.6,305.1c0,1.4-0.3,2.7-0.8,4c-0.5,1.3-1.2,2.5-2,3.6c-0.8,1.1-1.8,2.1-2.8,3.1
			c-1.1,0.9-2.1,1.8-3.2,2.5h8.3l-0.6,11l-24.7-0.8v-9.6c0.9-0.3,1.9-0.7,2.9-1.1s2-1,3-1.5c1-0.6,1.9-1.2,2.8-2
			c0.9-0.7,1.7-1.5,2.3-2.4c0.7-0.9,1.2-1.8,1.6-2.8s0.6-2.1,0.6-3.2c0-0.7-0.1-1.3-0.4-1.8c-0.2-0.5-0.6-0.9-1-1.3
			s-0.9-0.6-1.5-0.8c-0.6-0.2-1.1-0.3-1.8-0.3c-0.5,0-1.1,0.1-1.6,0.2c-0.5,0.1-1.1,0.3-1.6,0.5s-1,0.5-1.5,0.8
			c-0.5,0.3-0.9,0.7-1.3,1l-2.3-10.3c0.6-0.6,1.4-1.2,2.2-1.6c0.8-0.4,1.7-0.8,2.7-1.1c0.9-0.3,1.9-0.5,2.8-0.6
			c1-0.1,1.9-0.2,2.8-0.2c2.1,0,4,0.4,5.8,1.1c1.8,0.7,3.4,1.8,4.7,3.1c1.3,1.3,2.4,2.9,3.1,4.7S274.6,303,274.6,305.1z"/>
	</g>
	<g>
		<path fill="#F2ECE1" d="M313,398.7c0,2.3-0.4,4.4-1.1,6.1c-0.7,1.7-1.8,3.1-3.1,4.3c-1.3,1.1-2.9,2-4.8,2.5
			c-1.9,0.6-3.9,0.8-6.1,0.8c-1,0-2-0.1-3.1-0.3s-2.1-0.5-3.1-0.8c-1-0.3-2-0.7-3-1.2s-1.9-0.9-2.7-1.5l1-10.6
			c0.7,0.5,1.4,0.9,2.2,1.3c0.8,0.4,1.7,0.8,2.6,1.1c0.9,0.3,1.8,0.6,2.7,0.8c0.9,0.2,1.8,0.3,2.6,0.3c0.5,0,1,0,1.5-0.1
			c0.5-0.1,1-0.2,1.4-0.4s0.8-0.5,1-0.9c0.3-0.4,0.4-0.9,0.4-1.5c0-0.4-0.2-0.7-0.5-1.1c-0.4-0.3-0.8-0.6-1.3-0.9
			c-0.5-0.2-1-0.4-1.5-0.6c-0.5-0.1-1-0.2-1.3-0.2c-0.2,0-0.5,0-0.9,0c-0.3,0-0.7,0.1-1,0.1c-0.4,0.1-0.7,0.1-1,0.2
			c-0.3,0.1-0.6,0.2-0.8,0.4l0.2-7.5c0.3,0,0.6,0.1,0.8,0.1s0.5,0,0.8,0c0.6,0,1.3-0.1,2-0.2c0.7-0.1,1.4-0.3,2-0.6
			c0.6-0.3,1.1-0.7,1.5-1.2c0.4-0.5,0.6-1.2,0.6-2c0-0.6-0.2-1.1-0.5-1.4c-0.3-0.4-0.7-0.6-1.2-0.8c-0.5-0.2-1-0.3-1.5-0.4
			c-0.5-0.1-1-0.1-1.5-0.1c-1.4,0-2.8,0.2-4.2,0.7c-1.4,0.5-2.6,1.2-3.7,2.2l-2.2-9.6c1.6-1.3,3.5-2.3,5.5-3c2.1-0.7,4.1-1,6.2-1
			c1.9,0,3.7,0.3,5.5,0.8c1.7,0.6,3.3,1.4,4.6,2.5c1.3,1.1,2.4,2.4,3.2,4s1.2,3.4,1.2,5.5c0,0.6-0.1,1.2-0.3,1.8
			c-0.2,0.6-0.4,1.2-0.7,1.8c-0.3,0.6-0.7,1.1-1.1,1.6c-0.4,0.5-0.8,0.9-1.3,1.3c0.7,0.3,1.3,0.8,1.8,1.3s0.9,1.2,1.1,1.9
			c0.3,0.7,0.5,1.4,0.6,2.2C312.9,397.2,313,397.9,313,398.7z"/>
	</g>
	<g>
		<path fill="#F2ECE1" d="M355.3,479.8l-2.3,0.1l-0.5,11.4l-11.9,1.1l0.6-12.2l-14.1,0.3l3.9-23.2h10l-2.9,16.1l3.5-0.1l1-20H354
			l-0.8,19.6l2.1-0.1V479.8z"/>
	</g>
	<g>
		<path fill="#F2ECE1" d="M409.9,550.6c0,2.3-0.4,4.3-1.2,6s-1.9,3.1-3.3,4.2c-1.4,1.1-3.1,1.9-5,2.5s-3.9,0.8-6.1,0.8
			c-1,0-2.1-0.1-3.1-0.2c-1-0.1-2-0.4-3-0.6s-1.9-0.5-2.9-0.9c-1-0.3-1.9-0.7-2.9-1.1l1-10.5c0.6,0.4,1.3,0.7,2,1
			c0.7,0.3,1.5,0.6,2.2,0.8s1.5,0.4,2.3,0.5c0.8,0.1,1.5,0.2,2.3,0.2c0.4,0,1,0,1.6-0.1c0.6-0.1,1.2-0.2,1.8-0.4s1.1-0.5,1.5-0.9
			c0.4-0.4,0.6-0.9,0.6-1.5c0-0.6-0.2-1.1-0.5-1.5c-0.3-0.4-0.7-0.8-1.3-1c-0.5-0.3-1.1-0.5-1.8-0.6c-0.7-0.2-1.3-0.3-2-0.4
			s-1.3-0.1-1.9-0.2c-0.6,0-1.1,0-1.5,0c-0.8,0-1.6,0-2.4,0.1s-1.6,0.2-2.4,0.4l1.1-21.3l21.4-0.6l0.6,11l-13.2-0.7l-0.3,4.7
			c0.8-0.2,1.6-0.3,2.4-0.4c0.8-0.1,1.6-0.1,2.4-0.1c1.6,0,3.1,0.3,4.5,0.8c1.4,0.5,2.6,1.3,3.6,2.2s1.8,2.1,2.4,3.5
			C409.6,547.4,409.9,549,409.9,550.6z"/>
	</g>
	<g>
		<path fill="#F2ECE1" d="M481.4,605.5c0,2.1-0.4,4.1-1.1,5.8c-0.8,1.8-1.8,3.2-3.1,4.5c-1.3,1.2-2.9,2.2-4.7,2.9
			c-1.8,0.7-3.8,1-5.9,1c-1.7,0-3.3-0.2-4.7-0.7s-2.6-1.1-3.7-2c-1.1-0.8-2-1.8-2.8-3s-1.4-2.4-2-3.8c-0.5-1.4-0.9-2.8-1.1-4.3
			c-0.2-1.5-0.4-3-0.4-4.6c0-1.9,0.1-3.7,0.4-5.6c0.3-1.8,0.7-3.5,1.3-5.1c0.6-1.6,1.3-3,2.3-4.4c0.9-1.3,2-2.5,3.3-3.4
			c1.3-0.9,2.8-1.7,4.4-2.2s3.5-0.8,5.6-0.8c0.8,0,1.5,0,2.3,0.1c0.8,0.1,1.6,0.2,2.4,0.3s1.6,0.4,2.3,0.6c0.7,0.3,1.5,0.6,2.1,1
			l-0.8,10.4c-1.2-0.6-2.6-1.1-4-1.4s-2.9-0.5-4.2-0.5c-1.1,0-2,0.2-2.8,0.5s-1.5,0.8-2,1.4c-0.5,0.6-1,1.3-1.3,2.1
			c-0.3,0.8-0.5,1.8-0.6,2.8c1.2-0.7,2.4-1.2,3.7-1.6s2.7-0.6,4-0.6c1.5,0,3,0.2,4.4,0.7s2.6,1.2,3.6,2.1c1,0.9,1.8,2,2.4,3.3
			C481.1,602.4,481.4,603.9,481.4,605.5z M471.3,606.3c0-0.5-0.1-1-0.4-1.5s-0.5-0.8-0.9-1.1c-0.4-0.3-0.8-0.5-1.3-0.7
			c-0.5-0.2-1-0.3-1.5-0.3c-0.5,0-1,0.1-1.5,0.3c-0.5,0.2-0.9,0.4-1.3,0.7c-0.4,0.3-0.7,0.7-0.9,1.1s-0.4,0.9-0.4,1.5
			c0,0.5,0.1,1,0.4,1.4s0.5,0.8,0.9,1.1c0.4,0.3,0.8,0.5,1.3,0.7s1,0.3,1.5,0.3c0.5,0,1-0.1,1.5-0.3c0.5-0.2,0.9-0.4,1.3-0.7
			c0.4-0.3,0.7-0.7,0.9-1.1S471.3,606.8,471.3,606.3z"/>
	</g>
	<g>
		<path fill="#F2ECE1" d="M562.5,622c-1.8,5-3.4,9.5-4.8,13.5c-0.6,1.7-1.2,3.4-1.8,5.1c-0.6,1.7-1.1,3.2-1.6,4.6s-0.9,2.5-1.3,3.5
			c-0.3,0.9-0.5,1.5-0.6,1.8l-13.8-0.8l12.2-26.2l-14.3,0.8v-11.4l26.2-0.5V622z"/>
	</g>
	<g>
		<path fill="#F2ECE1" d="M654.5,647c0,1.4-0.2,2.7-0.6,3.8c-0.4,1.1-0.9,2.1-1.6,3c-0.7,0.9-1.5,1.6-2.4,2.2s-1.9,1.1-3,1.5
			c-1.1,0.4-2.3,0.7-3.5,0.9c-1.2,0.2-2.4,0.3-3.7,0.3c-1.8,0-3.5-0.2-5.3-0.7c-1.7-0.5-3.3-1.2-4.7-2.2c-1.4-1-2.5-2.2-3.3-3.7
			c-0.9-1.5-1.3-3.2-1.3-5.2c0-0.8,0.1-1.6,0.3-2.4c0.2-0.8,0.5-1.6,0.8-2.3s0.8-1.4,1.4-2c0.6-0.6,1.2-1.1,2-1.5
			c-1.2-1-2-2.2-2.6-3.6c-0.6-1.3-0.9-2.8-0.9-4.3c0-1.8,0.4-3.4,1.2-4.8c0.8-1.4,1.8-2.5,3.1-3.4c1.3-0.9,2.7-1.6,4.4-2.1
			c1.6-0.5,3.2-0.7,4.9-0.7c1.1,0,2.1,0.1,3.2,0.3s2.1,0.5,3.1,0.9s1.9,0.9,2.8,1.5s1.6,1.3,2.3,2.1c0.6,0.8,1.1,1.7,1.5,2.7
			s0.6,2.1,0.6,3.3c0,1.5-0.3,3-0.9,4.3c-0.6,1.3-1.5,2.5-2.6,3.6c1.7,0.9,2.9,2,3.6,3.4S654.5,645.1,654.5,647z M644.1,633.3
			c0-0.6-0.1-1.1-0.4-1.6c-0.3-0.5-0.6-0.9-1-1.2s-0.9-0.6-1.4-0.8c-0.5-0.2-1-0.3-1.6-0.3c-0.5,0-1.1,0.1-1.6,0.3s-1,0.4-1.4,0.8
			s-0.8,0.7-1,1.2c-0.3,0.5-0.4,1-0.4,1.6s0.1,1.1,0.4,1.6c0.3,0.5,0.6,0.9,1,1.2s0.9,0.6,1.4,0.7s1.1,0.3,1.6,0.3
			c0.5,0,1.1-0.1,1.6-0.3c0.5-0.2,1-0.4,1.4-0.7s0.8-0.7,1-1.2C644,634.4,644.1,633.9,644.1,633.3z M644.1,645.7
			c0-0.6-0.1-1.1-0.4-1.6c-0.3-0.5-0.6-0.9-1-1.2c-0.4-0.3-0.9-0.6-1.4-0.7c-0.5-0.2-1-0.3-1.6-0.3s-1.1,0.1-1.6,0.3
			c-0.5,0.2-1,0.4-1.4,0.7s-0.8,0.7-1,1.2c-0.3,0.5-0.4,1-0.4,1.6c0,0.6,0.1,1.1,0.4,1.5c0.3,0.5,0.6,0.8,1,1.2s0.9,0.6,1.4,0.7
			c0.5,0.2,1,0.3,1.6,0.3s1.1-0.1,1.6-0.3c0.5-0.2,1-0.4,1.4-0.7c0.4-0.3,0.7-0.7,1-1.2C643.9,646.8,644.1,646.3,644.1,645.7z"/>
	</g>
	<g>
		<path fill="#F2ECE1" d="M743.7,640.6c0,1.7-0.1,3.4-0.4,5c-0.3,1.7-0.7,3.3-1.2,4.9c-0.6,1.6-1.3,3.1-2.1,4.5s-1.9,2.6-3.1,3.6
			c-1.2,1-2.6,1.8-4.1,2.4c-1.6,0.6-3.3,0.9-5.2,0.9c-0.8,0-1.7,0-2.7-0.1c-0.9-0.1-1.8-0.2-2.7-0.4c-0.9-0.2-1.8-0.4-2.6-0.8
			c-0.9-0.3-1.6-0.7-2.3-1.3l1.4-10c0.5,0.3,1.2,0.6,1.8,0.9c0.7,0.3,1.4,0.5,2.1,0.7s1.4,0.4,2.2,0.5c0.7,0.1,1.4,0.2,2.1,0.2
			c1,0,1.9-0.1,2.7-0.4c0.7-0.3,1.4-0.7,1.9-1.3c0.5-0.5,0.9-1.2,1.3-2c0.3-0.8,0.5-1.6,0.7-2.6c-1.1,0.6-2.2,1-3.3,1.3
			s-2.3,0.4-3.5,0.4c-1.5,0-2.9-0.2-4.2-0.7s-2.5-1.1-3.5-2c-1-0.9-1.8-1.9-2.4-3.1s-0.9-2.6-0.9-4.2c0-2,0.4-3.8,1.1-5.5
			s1.7-3.1,3-4.3s2.8-2.1,4.5-2.8s3.6-1,5.6-1c2.4,0,4.6,0.5,6.3,1.4c1.8,0.9,3.3,2.1,4.4,3.7c1.2,1.5,2,3.3,2.6,5.4
			S743.7,638.3,743.7,640.6z M732.8,636.7c0-0.5-0.1-1-0.4-1.4c-0.2-0.4-0.5-0.8-0.9-1.1s-0.8-0.5-1.3-0.7s-0.9-0.2-1.4-0.2
			s-0.9,0.1-1.4,0.2s-0.9,0.4-1.2,0.7c-0.4,0.3-0.7,0.6-0.9,1.1c-0.2,0.4-0.3,0.9-0.3,1.4s0.1,1,0.4,1.4c0.2,0.4,0.5,0.8,0.9,1.1
			s0.8,0.5,1.3,0.7s0.9,0.3,1.4,0.3s0.9-0.1,1.4-0.2s0.9-0.4,1.2-0.7c0.4-0.3,0.7-0.6,0.9-1S732.8,637.2,732.8,636.7z"/>
	</g>
	<g>
		<path fill="#F2ECE1" d="M808.8,601.8l-1.5,37.5l-11.5-0.5l0.6-24.9l-4.2,2.9l-4-9l8.6-6.4L808.8,601.8z"/>
		<path fill="#F2ECE1" d="M843.4,620.9c0,1.5-0.2,3.1-0.5,4.6c-0.3,1.5-0.8,3-1.5,4.4s-1.4,2.7-2.4,3.9c-0.9,1.2-2,2.3-3.2,3.2
			s-2.5,1.6-4,2.1c-1.5,0.5-3,0.8-4.7,0.8c-1.7,0-3.3-0.3-4.7-0.8s-2.8-1.2-4-2.1c-1.2-0.9-2.3-2-3.2-3.2s-1.7-2.5-2.4-3.9
			s-1.1-2.9-1.5-4.4c-0.3-1.5-0.5-3.1-0.5-4.6s0.2-3.1,0.5-4.6c0.3-1.5,0.8-3,1.5-4.4s1.5-2.7,2.4-3.9c0.9-1.2,2-2.3,3.2-3.2
			c1.2-0.9,2.5-1.6,4-2.1c1.5-0.5,3-0.8,4.7-0.8s3.2,0.3,4.7,0.8c1.4,0.5,2.8,1.2,4,2.1s2.3,2,3.2,3.2c0.9,1.2,1.7,2.5,2.4,3.9
			s1.1,2.9,1.5,4.4C843.2,617.8,843.4,619.4,843.4,620.9z M832.2,621.7c0-0.8-0.1-1.6-0.3-2.6s-0.5-1.8-1-2.7s-1-1.5-1.7-2.1
			s-1.5-0.8-2.5-0.8c-1,0-1.8,0.3-2.5,0.8s-1.3,1.3-1.7,2.1c-0.4,0.8-0.8,1.7-1,2.7s-0.3,1.8-0.3,2.6s0.1,1.6,0.3,2.6s0.5,1.8,1,2.7
			c0.4,0.8,1,1.5,1.7,2.1s1.5,0.8,2.5,0.8c0.9,0,1.8-0.3,2.5-0.8s1.2-1.3,1.7-2.1s0.8-1.7,1-2.7S832.2,622.4,832.2,621.7z"/>
	</g>
	<g>
		<path fill="#F2ECE1" d="M876.3,537.8l-1.5,37.5l-11.5-0.5l0.6-24.9l-4.2,2.9l-4-9l8.6-6.4L876.3,537.8z"/>
		<path fill="#F2ECE1" d="M897.7,537.8l-1.5,37.5l-11.5-0.5l0.6-24.9l-4.2,2.9l-4-9l8.6-6.4L897.7,537.8z"/>
	</g>
	<g>
		<path fill="#F2ECE1" d="M866.3,452.7l-1.5,37.5l-11.5-0.5l0.6-24.9l-4.2,2.9l-4-9l8.6-6.4L866.3,452.7z"/>
		<path fill="#F2ECE1" d="M894.1,465.7c0,1.4-0.3,2.7-0.8,4s-1.2,2.5-2,3.6c-0.8,1.1-1.8,2.1-2.8,3.1c-1.1,0.9-2.1,1.8-3.2,2.5h8.3
			l-0.6,11l-24.7-0.8v-9.6c0.9-0.3,1.9-0.7,2.9-1.1c1-0.4,2-1,3-1.5c1-0.6,1.9-1.2,2.8-2s1.7-1.5,2.3-2.4c0.7-0.9,1.2-1.8,1.6-2.8
			c0.4-1,0.6-2.1,0.6-3.2c0-0.7-0.1-1.3-0.4-1.8c-0.2-0.5-0.6-0.9-1-1.3c-0.4-0.3-0.9-0.6-1.5-0.8c-0.6-0.2-1.1-0.3-1.8-0.3
			c-0.5,0-1.1,0.1-1.6,0.2s-1.1,0.3-1.6,0.5s-1,0.5-1.5,0.8s-0.9,0.7-1.3,1l-2.3-10.3c0.7-0.7,1.4-1.2,2.2-1.6s1.7-0.8,2.7-1.1
			c0.9-0.3,1.9-0.5,2.8-0.6s1.9-0.2,2.8-0.2c2.1,0,4,0.4,5.8,1.1s3.4,1.8,4.7,3.1c1.3,1.3,2.4,2.9,3.1,4.7
			C893.7,461.7,894.1,463.7,894.1,465.7z"/>
	</g>
	<g>
		<path fill="#F2ECE1" d="M801.1,389.6l-1.5,37.5l-11.5-0.5l0.6-24.9l-4.2,2.9l-4-9l8.6-6.4L801.1,389.6z"/>
		<path fill="#F2ECE1" d="M829.8,414.2c0,2.3-0.4,4.4-1.1,6.1c-0.7,1.7-1.8,3.1-3.1,4.3c-1.3,1.1-2.9,2-4.8,2.5
			c-1.9,0.6-3.9,0.8-6.1,0.8c-1,0-2-0.1-3.1-0.3s-2.1-0.5-3.1-0.8s-2-0.7-3-1.2c-1-0.5-1.9-0.9-2.7-1.5l1-10.6
			c0.7,0.5,1.4,0.9,2.2,1.3c0.8,0.4,1.7,0.8,2.6,1.1c0.9,0.3,1.8,0.6,2.7,0.8c0.9,0.2,1.8,0.3,2.6,0.3c0.5,0,1,0,1.5-0.1
			c0.5-0.1,1-0.2,1.4-0.4s0.8-0.5,1-0.9c0.3-0.4,0.4-0.9,0.4-1.5c0-0.4-0.2-0.7-0.5-1.1s-0.8-0.6-1.3-0.9c-0.5-0.2-1-0.4-1.5-0.6
			c-0.5-0.1-1-0.2-1.3-0.2c-0.2,0-0.5,0-0.9,0c-0.3,0-0.7,0.1-1,0.1s-0.7,0.1-1,0.2c-0.3,0.1-0.6,0.2-0.8,0.4l0.2-7.5
			c0.3,0,0.6,0.1,0.8,0.1s0.5,0,0.8,0c0.6,0,1.3-0.1,2-0.2c0.7-0.1,1.4-0.3,2-0.6c0.6-0.3,1.1-0.7,1.5-1.2c0.4-0.5,0.6-1.2,0.6-2
			c0-0.6-0.2-1-0.5-1.4s-0.7-0.6-1.2-0.8s-1-0.3-1.5-0.4s-1-0.1-1.5-0.1c-1.4,0-2.8,0.2-4.2,0.7c-1.4,0.5-2.6,1.2-3.7,2.2l-2.2-9.6
			c1.6-1.3,3.5-2.3,5.5-3c2.1-0.7,4.1-1,6.2-1c1.9,0,3.7,0.3,5.5,0.8c1.7,0.6,3.3,1.4,4.6,2.5c1.3,1.1,2.4,2.4,3.2,4
			s1.2,3.4,1.2,5.5c0,0.6-0.1,1.2-0.3,1.8s-0.4,1.2-0.7,1.8s-0.7,1.1-1.1,1.6c-0.4,0.5-0.8,0.9-1.3,1.3c0.7,0.3,1.3,0.8,1.8,1.3
			s0.9,1.2,1.1,1.9s0.5,1.4,0.6,2.2C829.8,412.7,829.8,413.5,829.8,414.2z"/>
	</g>
	<g>
		<path fill="#F2ECE1" d="M717.5,355.7l-1.5,37.5l-11.5-0.5l0.6-24.9l-4.2,2.9l-4-9l8.6-6.4L717.5,355.7z"/>
		<path fill="#F2ECE1" d="M746.8,380.9l-2.3,0.1l-0.5,11.4l-11.9,1.1l0.6-12.2l-14.1,0.3l3.9-23.2h10l-2.9,16.1l3.5-0.1l1-20h11.4
			l-0.8,19.6l2.1-0.1V380.9z"/>
	</g>
	<g>
		<path fill="#F2ECE1" d="M633.5,322.8l-1.5,37.5l-11.5-0.5l0.6-24.9l-4.2,2.9l-4-9l8.6-6.4L633.5,322.8z"/>
		<path fill="#F2ECE1" d="M662.8,347.5c0,2.3-0.4,4.3-1.2,6s-1.9,3.1-3.3,4.2c-1.4,1.1-3.1,1.9-5,2.5c-1.9,0.5-3.9,0.8-6.1,0.8
			c-1,0-2.1-0.1-3.1-0.2s-2-0.4-3-0.6c-1-0.3-1.9-0.5-2.9-0.9c-1-0.3-1.9-0.7-2.9-1.1l1-10.5c0.6,0.4,1.3,0.7,2,1
			c0.7,0.3,1.5,0.6,2.2,0.8s1.5,0.4,2.3,0.5c0.8,0.1,1.5,0.2,2.3,0.2c0.4,0,1,0,1.6-0.1s1.2-0.2,1.8-0.4c0.6-0.2,1.1-0.5,1.5-0.9
			c0.4-0.4,0.6-0.9,0.6-1.5c0-0.6-0.2-1.1-0.5-1.5c-0.3-0.4-0.7-0.8-1.3-1c-0.5-0.3-1.1-0.5-1.8-0.6c-0.7-0.2-1.3-0.3-2-0.4
			c-0.7-0.1-1.3-0.1-1.9-0.2c-0.6,0-1.1,0-1.5,0c-0.8,0-1.6,0-2.4,0.1c-0.8,0.1-1.6,0.2-2.4,0.4l1.1-21.3l21.4-0.6l0.6,11l-13.2-0.7
			l-0.3,4.7c0.8-0.2,1.6-0.3,2.4-0.4c0.8-0.1,1.6-0.1,2.4-0.1c1.6,0,3.1,0.3,4.5,0.8c1.4,0.5,2.6,1.3,3.6,2.2c1,1,1.8,2.1,2.4,3.5
			C662.5,344.3,662.8,345.8,662.8,347.5z"/>
	</g>
	<g>
		<path fill="#F2ECE1" d="M570,259.7l-1.5,37.5l-11.5-0.5l0.6-24.9l-4.2,2.9l-4-9l8.6-6.4L570,259.7z"/>
		<path fill="#F2ECE1" d="M601.7,284.2c0,2.1-0.4,4.1-1.1,5.8c-0.8,1.7-1.8,3.2-3.1,4.5c-1.3,1.2-2.9,2.2-4.7,2.9
			c-1.8,0.7-3.8,1-5.9,1c-1.7,0-3.3-0.2-4.7-0.7s-2.6-1.1-3.7-2c-1.1-0.8-2-1.8-2.8-3s-1.4-2.4-2-3.8c-0.5-1.4-0.9-2.8-1.1-4.3
			c-0.2-1.5-0.4-3-0.4-4.6c0-1.9,0.1-3.7,0.4-5.6c0.3-1.8,0.7-3.5,1.3-5.1c0.6-1.6,1.3-3,2.3-4.4c0.9-1.3,2-2.5,3.3-3.4
			c1.3-0.9,2.8-1.7,4.4-2.2c1.7-0.5,3.5-0.8,5.6-0.8c0.8,0,1.5,0,2.3,0.1c0.8,0.1,1.6,0.2,2.4,0.3s1.6,0.4,2.3,0.6
			c0.7,0.3,1.5,0.6,2.1,1l-0.8,10.4c-1.2-0.6-2.6-1.1-4-1.4c-1.5-0.3-2.9-0.5-4.2-0.5c-1.1,0-2,0.2-2.8,0.5c-0.8,0.3-1.5,0.8-2,1.4
			c-0.5,0.6-1,1.3-1.3,2.1c-0.3,0.8-0.5,1.8-0.6,2.8c1.2-0.7,2.4-1.2,3.7-1.6c1.3-0.4,2.7-0.6,4-0.6c1.5,0,3,0.2,4.4,0.7
			s2.6,1.2,3.6,2.1c1,0.9,1.8,2,2.4,3.3C601.4,281.1,601.7,282.6,601.7,284.2z M591.7,285c0-0.5-0.1-1-0.4-1.5
			c-0.2-0.4-0.5-0.8-0.9-1.1c-0.4-0.3-0.8-0.5-1.3-0.7c-0.5-0.2-1-0.3-1.5-0.3c-0.5,0-1,0.1-1.5,0.3c-0.5,0.2-0.9,0.4-1.3,0.7
			c-0.4,0.3-0.7,0.7-0.9,1.1c-0.2,0.4-0.4,0.9-0.4,1.5c0,0.5,0.1,1,0.4,1.4c0.2,0.4,0.5,0.8,0.9,1.1c0.4,0.3,0.8,0.5,1.3,0.7
			c0.5,0.2,1,0.3,1.5,0.3c0.5,0,1-0.1,1.5-0.3c0.5-0.2,0.9-0.4,1.3-0.7c0.4-0.3,0.7-0.7,0.9-1.1C591.6,286,591.7,285.5,591.7,285z"
			/>
	</g>
	<g>
		<path fill="#F2ECE1" d="M587.1,176.8l-1.5,37.5l-11.5-0.5l0.6-24.9l-4.2,2.9l-4-9l8.6-6.4L587.1,176.8z"/>
		<path fill="#F2ECE1" d="M615,185.7c-1.8,5-3.4,9.5-4.8,13.5c-0.6,1.7-1.2,3.4-1.8,5.1c-0.6,1.7-1.1,3.2-1.6,4.6
			c-0.5,1.4-0.9,2.5-1.3,3.5c-0.3,0.9-0.5,1.5-0.6,1.8l-13.8-0.8l12.2-26.2l-14.3,0.8v-11.4l26.2-0.5V185.7z"/>
	</g>
	<g>
		<path fill="#F2ECE1" d="M663.1,125l-1.5,37.5l-11.5-0.5l0.6-24.9l-4.2,2.9l-4-9l8.6-6.4L663.1,125z"/>
		<path fill="#F2ECE1" d="M694.4,151.3c0,1.4-0.2,2.7-0.6,3.8c-0.4,1.1-0.9,2.1-1.6,3c-0.7,0.9-1.5,1.6-2.4,2.2
			c-0.9,0.6-1.9,1.1-3,1.5c-1.1,0.4-2.3,0.7-3.5,0.9s-2.4,0.3-3.7,0.3c-1.8,0-3.5-0.2-5.3-0.7s-3.3-1.2-4.7-2.2
			c-1.4-1-2.5-2.2-3.3-3.7c-0.9-1.5-1.3-3.2-1.3-5.2c0-0.8,0.1-1.6,0.3-2.4s0.5-1.6,0.8-2.3s0.8-1.4,1.4-2c0.6-0.6,1.2-1.1,2-1.5
			c-1.2-1-2-2.2-2.6-3.6s-0.9-2.8-0.9-4.3c0-1.8,0.4-3.4,1.2-4.8c0.8-1.4,1.8-2.5,3.1-3.4c1.3-0.9,2.7-1.6,4.4-2.1
			c1.6-0.5,3.2-0.7,4.9-0.7c1.1,0,2.1,0.1,3.2,0.3c1.1,0.2,2.1,0.5,3.1,0.9c1,0.4,1.9,0.9,2.8,1.5c0.9,0.6,1.6,1.3,2.3,2.1
			c0.6,0.8,1.1,1.7,1.5,2.7c0.4,1,0.6,2.1,0.6,3.3c0,1.5-0.3,3-0.9,4.3s-1.5,2.5-2.6,3.6c1.7,0.9,2.9,2,3.6,3.4
			C694,147.8,694.4,149.4,694.4,151.3z M684,137.6c0-0.6-0.1-1.1-0.4-1.6c-0.3-0.5-0.6-0.9-1-1.2c-0.4-0.3-0.9-0.6-1.4-0.8
			c-0.5-0.2-1-0.3-1.6-0.3c-0.5,0-1.1,0.1-1.6,0.3c-0.5,0.2-1,0.4-1.4,0.8c-0.4,0.3-0.8,0.7-1,1.2c-0.3,0.5-0.4,1-0.4,1.6
			s0.1,1.1,0.4,1.6c0.3,0.5,0.6,0.9,1,1.2s0.9,0.6,1.4,0.7c0.5,0.2,1.1,0.3,1.6,0.3c0.5,0,1-0.1,1.6-0.3c0.5-0.2,1-0.4,1.4-0.7
			s0.8-0.7,1-1.2C683.8,138.7,684,138.2,684,137.6z M683.9,150c0-0.6-0.1-1.1-0.4-1.6c-0.3-0.5-0.6-0.9-1-1.2s-0.9-0.6-1.4-0.7
			c-0.5-0.2-1-0.3-1.6-0.3s-1.1,0.1-1.6,0.3c-0.5,0.2-1,0.4-1.4,0.7s-0.8,0.7-1,1.2c-0.3,0.5-0.4,1-0.4,1.6c0,0.6,0.1,1.1,0.4,1.5
			c0.3,0.5,0.6,0.8,1,1.2s0.9,0.6,1.4,0.7c0.5,0.2,1,0.3,1.6,0.3s1-0.1,1.6-0.3c0.5-0.2,1-0.4,1.4-0.7s0.7-0.7,1-1.2
			C683.8,151.1,683.9,150.6,683.9,150z"/>
	</g>
	<g>
		<path fill="#F2ECE1" d="M747.8,110.1l-1.5,37.5l-11.5-0.5l0.6-24.9l-4.2,2.9l-4-9l8.6-6.4L747.8,110.1z"/>
		<path fill="#F2ECE1" d="M778.1,126.5c0,1.7-0.1,3.4-0.4,5c-0.3,1.7-0.7,3.3-1.2,4.9c-0.6,1.6-1.3,3.1-2.1,4.5
			c-0.9,1.4-1.9,2.6-3.1,3.6s-2.6,1.8-4.1,2.4c-1.6,0.6-3.3,0.9-5.2,0.9c-0.8,0-1.7,0-2.7-0.1c-0.9-0.1-1.8-0.2-2.7-0.4
			s-1.8-0.4-2.6-0.8c-0.9-0.3-1.6-0.7-2.3-1.3l1.4-10c0.5,0.3,1.2,0.6,1.8,0.9c0.7,0.3,1.4,0.5,2.1,0.7s1.4,0.4,2.2,0.5
			c0.7,0.1,1.4,0.2,2.1,0.2c1,0,1.9-0.1,2.7-0.4c0.7-0.3,1.4-0.7,1.9-1.3c0.5-0.5,0.9-1.2,1.3-2s0.5-1.6,0.7-2.6
			c-1.1,0.6-2.2,1-3.3,1.3c-1.2,0.3-2.3,0.4-3.5,0.4c-1.5,0-2.9-0.2-4.2-0.7c-1.3-0.5-2.5-1.1-3.5-2c-1-0.9-1.8-1.9-2.4-3.1
			c-0.6-1.2-0.9-2.6-0.9-4.2c0-2,0.4-3.8,1.1-5.5c0.7-1.7,1.7-3.1,3-4.3c1.3-1.2,2.8-2.1,4.5-2.8c1.7-0.7,3.6-1,5.6-1
			c2.4,0,4.6,0.5,6.3,1.4c1.8,0.9,3.3,2.1,4.4,3.7c1.2,1.5,2,3.3,2.6,5.4C777.8,122,778.1,124.2,778.1,126.5z M767.2,122.6
			c0-0.5-0.1-1-0.4-1.4c-0.2-0.4-0.5-0.8-0.9-1.1c-0.4-0.3-0.8-0.5-1.3-0.7s-0.9-0.2-1.4-0.2s-0.9,0.1-1.4,0.2
			c-0.5,0.1-0.9,0.4-1.2,0.7s-0.7,0.6-0.9,1.1c-0.2,0.4-0.3,0.9-0.3,1.4c0,0.5,0.1,1,0.4,1.4c0.2,0.4,0.5,0.8,0.9,1.1
			c0.4,0.3,0.8,0.5,1.3,0.7c0.5,0.2,0.9,0.3,1.4,0.3s0.9-0.1,1.4-0.2s0.9-0.4,1.2-0.7s0.7-0.6,0.9-1
			C767.1,123.6,767.2,123.1,767.2,122.6z"/>
	</g>
	<g>
		<path fill="#F2ECE1" d="M836,143.7c0,1.4-0.3,2.7-0.8,4c-0.5,1.3-1.2,2.5-2,3.6c-0.8,1.1-1.8,2.1-2.8,3.1
			c-1.1,0.9-2.1,1.8-3.2,2.5h8.3l-0.6,11l-24.7-0.8v-9.6c0.9-0.3,1.9-0.7,2.9-1.1c1-0.4,2-1,3-1.5c1-0.6,1.9-1.2,2.8-2
			c0.9-0.7,1.7-1.5,2.3-2.4c0.7-0.9,1.2-1.8,1.6-2.8c0.4-1,0.6-2.1,0.6-3.2c0-0.7-0.1-1.3-0.4-1.8c-0.2-0.5-0.6-0.9-1-1.3
			s-0.9-0.6-1.5-0.8c-0.6-0.2-1.1-0.3-1.8-0.3c-0.5,0-1.1,0.1-1.6,0.2c-0.5,0.1-1.1,0.3-1.6,0.5s-1,0.5-1.5,0.8
			c-0.5,0.3-0.9,0.7-1.3,1l-2.3-10.3c0.7-0.6,1.4-1.2,2.2-1.6c0.8-0.4,1.7-0.8,2.7-1.1c0.9-0.3,1.9-0.5,2.8-0.6
			c1-0.1,1.9-0.2,2.8-0.2c2.1,0,4,0.4,5.8,1.1c1.8,0.7,3.4,1.8,4.7,3.1c1.3,1.3,2.4,2.9,3.1,4.7C835.6,139.7,836,141.6,836,143.7z"
			/>
		<path fill="#F2ECE1" d="M870.3,149.7c0,1.5-0.2,3.1-0.5,4.6c-0.3,1.5-0.8,3-1.5,4.4c-0.7,1.4-1.4,2.7-2.4,3.9
			c-0.9,1.2-2,2.3-3.2,3.2s-2.5,1.6-4,2.1c-1.5,0.5-3,0.8-4.7,0.8c-1.7,0-3.3-0.3-4.7-0.8c-1.5-0.5-2.8-1.2-4-2.1
			c-1.2-0.9-2.3-2-3.2-3.2s-1.7-2.5-2.4-3.9c-0.7-1.4-1.1-2.9-1.5-4.4c-0.3-1.5-0.5-3.1-0.5-4.6s0.2-3.1,0.5-4.6
			c0.3-1.5,0.8-3,1.5-4.4c0.7-1.4,1.5-2.7,2.4-3.9c0.9-1.2,2-2.3,3.2-3.2c1.2-0.9,2.5-1.6,4-2.1c1.5-0.5,3-0.8,4.7-0.8
			s3.2,0.3,4.7,0.8c1.4,0.5,2.8,1.2,4,2.1s2.3,2,3.2,3.2c0.9,1.2,1.7,2.5,2.4,3.9c0.7,1.4,1.1,2.9,1.5,4.4
			C870.1,146.6,870.3,148.1,870.3,149.7z M859.2,150.5c0-0.8-0.1-1.6-0.3-2.6s-0.5-1.8-1-2.7c-0.4-0.8-1-1.5-1.7-2.1
			c-0.7-0.6-1.5-0.8-2.5-0.8c-1,0-1.8,0.3-2.5,0.8c-0.7,0.6-1.3,1.3-1.7,2.1c-0.4,0.8-0.8,1.7-1,2.7s-0.3,1.8-0.3,2.6
			c0,0.8,0.1,1.6,0.3,2.6s0.5,1.8,1,2.7c0.4,0.8,1,1.5,1.7,2.1c0.7,0.6,1.5,0.8,2.5,0.8c0.9,0,1.8-0.3,2.5-0.8
			c0.7-0.6,1.2-1.3,1.7-2.1c0.4-0.8,0.8-1.7,1-2.7S859.2,151.2,859.2,150.5z"/>
	</g>
	<g>
		<path fill="#F2ECE1" d="M914.2,195.4c0,1.4-0.3,2.7-0.8,4c-0.5,1.3-1.2,2.5-2,3.6c-0.8,1.1-1.8,2.1-2.8,3.1
			c-1.1,0.9-2.1,1.8-3.2,2.5h8.3l-0.6,11l-24.7-0.8v-9.6c0.9-0.3,1.9-0.7,2.9-1.1c1-0.4,2-1,3-1.5c1-0.6,1.9-1.2,2.8-2
			c0.9-0.7,1.7-1.5,2.3-2.4c0.7-0.9,1.2-1.8,1.6-2.8c0.4-1,0.6-2.1,0.6-3.2c0-0.7-0.1-1.3-0.4-1.8c-0.2-0.5-0.6-0.9-1-1.3
			s-0.9-0.6-1.5-0.8c-0.6-0.2-1.1-0.3-1.8-0.3c-0.5,0-1.1,0.1-1.6,0.2c-0.5,0.1-1.1,0.3-1.6,0.5s-1,0.5-1.5,0.8
			c-0.5,0.3-0.9,0.7-1.3,1l-2.3-10.3c0.7-0.6,1.4-1.2,2.2-1.6c0.8-0.4,1.7-0.8,2.7-1.1c0.9-0.3,1.9-0.5,2.8-0.6
			c1-0.1,1.9-0.2,2.8-0.2c2.1,0,4,0.4,5.8,1.1c1.8,0.7,3.4,1.8,4.7,3.1c1.3,1.3,2.4,2.9,3.1,4.7
			C913.8,191.4,914.2,193.3,914.2,195.4z"/>
		<path fill="#F2ECE1" d="M934.9,182.3l-1.5,37.5l-11.5-0.5l0.6-24.9l-4.2,2.9l-4-9l8.6-6.4L934.9,182.3z"/>
	</g>
	<g>
		<path fill="#F2ECE1" d="M968.2,264.3c0,1.4-0.3,2.7-0.8,4c-0.5,1.3-1.2,2.5-2,3.6c-0.8,1.1-1.8,2.1-2.8,3.1
			c-1.1,0.9-2.1,1.8-3.2,2.5h8.3l-0.6,11l-24.7-0.8v-9.6c0.9-0.3,1.9-0.7,2.9-1.1c1-0.4,2-1,3-1.5c1-0.6,1.9-1.2,2.8-2
			c0.9-0.7,1.7-1.5,2.3-2.4c0.7-0.9,1.2-1.8,1.6-2.8c0.4-1,0.6-2.1,0.6-3.2c0-0.7-0.1-1.3-0.4-1.8c-0.2-0.5-0.6-0.9-1-1.3
			s-0.9-0.6-1.5-0.8c-0.6-0.2-1.1-0.3-1.8-0.3c-0.5,0-1.1,0.1-1.6,0.2c-0.5,0.1-1.1,0.3-1.6,0.5s-1,0.5-1.5,0.8
			c-0.5,0.3-0.9,0.7-1.3,1l-2.3-10.3c0.7-0.6,1.4-1.2,2.2-1.6c0.8-0.4,1.7-0.8,2.7-1.1c0.9-0.3,1.9-0.5,2.8-0.6
			c1-0.1,1.9-0.2,2.8-0.2c2.1,0,4,0.4,5.8,1.1c1.8,0.7,3.4,1.8,4.7,3.1c1.3,1.3,2.4,2.9,3.1,4.7
			C967.9,260.3,968.2,262.3,968.2,264.3z"/>
		<path fill="#F2ECE1" d="M995.7,264.3c0,1.4-0.3,2.7-0.8,4c-0.5,1.3-1.2,2.5-2,3.6c-0.8,1.1-1.8,2.1-2.8,3.1
			c-1.1,0.9-2.1,1.8-3.2,2.5h8.3l-0.6,11l-24.7-0.8v-9.6c0.9-0.3,1.9-0.7,2.9-1.1c1-0.4,2-1,3-1.5c1-0.6,1.9-1.2,2.8-2
			c0.9-0.7,1.7-1.5,2.3-2.4c0.7-0.9,1.2-1.8,1.6-2.8c0.4-1,0.6-2.1,0.6-3.2c0-0.7-0.1-1.3-0.4-1.8c-0.2-0.5-0.6-0.9-1-1.3
			s-0.9-0.6-1.5-0.8c-0.6-0.2-1.1-0.3-1.8-0.3c-0.5,0-1.1,0.1-1.6,0.2c-0.5,0.1-1.1,0.3-1.6,0.5s-1,0.5-1.5,0.8
			c-0.5,0.3-0.9,0.7-1.3,1l-2.3-10.3c0.7-0.6,1.4-1.2,2.2-1.6c0.8-0.4,1.7-0.8,2.7-1.1c0.9-0.3,1.9-0.5,2.8-0.6
			c1-0.1,1.9-0.2,2.8-0.2c2.1,0,4,0.4,5.8,1.1c1.8,0.7,3.4,1.8,4.7,3.1c1.3,1.3,2.4,2.9,3.1,4.7
			C995.4,260.3,995.7,262.3,995.7,264.3z"/>
	</g>
	<g>
		<path fill="#F2ECE1" d="M1021.3,338.5c0,1.4-0.3,2.7-0.8,4c-0.5,1.3-1.2,2.5-2,3.6c-0.8,1.1-1.8,2.1-2.8,3.1
			c-1.1,0.9-2.1,1.8-3.2,2.5h8.3l-0.6,11l-24.7-0.8v-9.6c0.9-0.3,1.9-0.7,2.9-1.1c1-0.4,2-1,3-1.5c1-0.6,1.9-1.2,2.8-2
			c0.9-0.7,1.7-1.5,2.3-2.4c0.7-0.9,1.2-1.8,1.6-2.8c0.4-1,0.6-2.1,0.6-3.2c0-0.7-0.1-1.3-0.4-1.8c-0.2-0.5-0.6-0.9-1-1.3
			s-0.9-0.6-1.5-0.8c-0.6-0.2-1.1-0.3-1.8-0.3c-0.5,0-1.1,0.1-1.6,0.2c-0.5,0.1-1.1,0.3-1.6,0.5s-1,0.5-1.5,0.8
			c-0.5,0.3-0.9,0.7-1.3,1l-2.3-10.3c0.7-0.6,1.4-1.2,2.2-1.6c0.8-0.4,1.7-0.8,2.7-1.1c0.9-0.3,1.9-0.5,2.8-0.6
			c1-0.1,1.9-0.2,2.8-0.2c2.1,0,4,0.4,5.8,1.1c1.8,0.7,3.4,1.8,4.7,3.1c1.3,1.3,2.4,2.9,3.1,4.7
			C1020.9,334.5,1021.3,336.4,1021.3,338.5z"/>
		<path fill="#F2ECE1" d="M1049.8,350c0,2.3-0.4,4.4-1.1,6.1s-1.8,3.1-3.1,4.3s-2.9,2-4.8,2.5s-3.9,0.8-6.1,0.8c-1,0-2-0.1-3.1-0.3
			s-2.1-0.5-3.1-0.8c-1-0.3-2-0.7-3-1.2c-1-0.5-1.9-0.9-2.7-1.5l1-10.6c0.7,0.5,1.4,0.9,2.2,1.3c0.8,0.4,1.7,0.8,2.6,1.1
			c0.9,0.3,1.8,0.6,2.7,0.8c0.9,0.2,1.8,0.3,2.6,0.3c0.5,0,1,0,1.5-0.1s1-0.2,1.4-0.4s0.8-0.5,1-0.9c0.3-0.4,0.4-0.9,0.4-1.5
			c0-0.4-0.2-0.7-0.5-1.1c-0.4-0.3-0.8-0.6-1.3-0.9s-1-0.4-1.5-0.6s-1-0.2-1.3-0.2c-0.2,0-0.5,0-0.9,0c-0.3,0-0.7,0.1-1,0.1
			s-0.7,0.1-1,0.2c-0.3,0.1-0.6,0.2-0.8,0.4l0.2-7.5c0.3,0,0.6,0.1,0.8,0.1c0.3,0,0.5,0,0.8,0c0.6,0,1.3-0.1,2-0.2
			c0.7-0.1,1.4-0.3,2-0.6s1.1-0.7,1.5-1.2c0.4-0.5,0.6-1.2,0.6-2c0-0.6-0.2-1.1-0.5-1.4c-0.3-0.4-0.7-0.6-1.2-0.8
			c-0.5-0.2-1-0.3-1.5-0.4c-0.5-0.1-1-0.1-1.5-0.1c-1.4,0-2.8,0.2-4.2,0.7c-1.4,0.5-2.6,1.2-3.7,2.2l-2.2-9.6c1.6-1.3,3.5-2.3,5.5-3
			c2.1-0.7,4.1-1,6.2-1c1.9,0,3.7,0.3,5.5,0.8c1.7,0.6,3.3,1.4,4.6,2.5s2.4,2.4,3.2,4s1.2,3.4,1.2,5.5c0,0.6-0.1,1.2-0.3,1.8
			c-0.2,0.6-0.4,1.2-0.7,1.8s-0.7,1.1-1.1,1.6s-0.8,0.9-1.3,1.3c0.7,0.3,1.3,0.8,1.8,1.3c0.5,0.6,0.9,1.2,1.1,1.9s0.5,1.4,0.6,2.2
			S1049.8,349.3,1049.8,350z"/>
	</g>
	<g>
		<path fill="#F2ECE1" d="M1081.4,405.8c0,1.4-0.3,2.7-0.8,4s-1.2,2.5-2,3.6c-0.8,1.1-1.8,2.1-2.8,3.1c-1.1,0.9-2.1,1.8-3.2,2.5h8.3
			l-0.6,11l-24.7-0.8v-9.6c0.9-0.3,1.9-0.7,2.9-1.1c1-0.4,2-1,3-1.5c1-0.6,1.9-1.2,2.8-2s1.7-1.5,2.3-2.4c0.7-0.9,1.2-1.8,1.6-2.8
			c0.4-1,0.6-2.1,0.6-3.2c0-0.7-0.1-1.3-0.4-1.8c-0.2-0.5-0.6-0.9-1-1.3c-0.4-0.3-0.9-0.6-1.5-0.8c-0.6-0.2-1.1-0.3-1.8-0.3
			c-0.5,0-1.1,0.1-1.6,0.2s-1.1,0.3-1.6,0.5s-1,0.5-1.5,0.8s-0.9,0.7-1.3,1l-2.3-10.3c0.7-0.7,1.4-1.2,2.2-1.6s1.7-0.8,2.7-1.1
			c0.9-0.3,1.9-0.5,2.8-0.6s1.9-0.2,2.8-0.2c2.1,0,4,0.4,5.8,1.1s3.4,1.8,4.7,3.1c1.3,1.3,2.4,2.9,3.1,4.7
			C1081,401.8,1081.4,403.7,1081.4,405.8z"/>
		<path fill="#F2ECE1" d="M1110.5,418l-2.3,0.1l-0.5,11.4l-11.9,1.1l0.6-12.2l-14.1,0.3l3.9-23.2h10l-2.9,16.1l3.5-0.1l1-20h11.4
			l-0.8,19.6l2.1-0.1V418z"/>
	</g>
	<g>
		<path fill="#F2ECE1" d="M1156,455.9c0,1.4-0.3,2.7-0.8,4s-1.2,2.5-2,3.6c-0.8,1.1-1.8,2.1-2.8,3.1c-1.1,0.9-2.1,1.8-3.2,2.5h8.3
			l-0.6,11l-24.7-0.8v-9.6c0.9-0.3,1.9-0.7,2.9-1.1c1-0.4,2-1,3-1.5c1-0.6,1.9-1.2,2.8-2s1.7-1.5,2.3-2.4c0.7-0.9,1.2-1.8,1.6-2.8
			c0.4-1,0.6-2.1,0.6-3.2c0-0.7-0.1-1.3-0.4-1.8c-0.2-0.5-0.6-0.9-1-1.3c-0.4-0.3-0.9-0.6-1.5-0.8c-0.6-0.2-1.1-0.3-1.8-0.3
			c-0.5,0-1.1,0.1-1.6,0.2s-1.1,0.3-1.6,0.5s-1,0.5-1.5,0.8s-0.9,0.7-1.3,1l-2.3-10.3c0.7-0.7,1.4-1.2,2.2-1.6s1.7-0.8,2.7-1.1
			c0.9-0.3,1.9-0.5,2.8-0.6s1.9-0.2,2.8-0.2c2.1,0,4,0.4,5.8,1.1s3.4,1.8,4.7,3.1c1.3,1.3,2.4,2.9,3.1,4.7
			C1155.7,451.9,1156,453.9,1156,455.9z"/>
		<path fill="#F2ECE1" d="M1185.1,467.5c0,2.3-0.4,4.3-1.2,6c-0.8,1.7-1.9,3.1-3.3,4.2s-3.1,1.9-5,2.5s-3.9,0.8-6.1,0.8
			c-1,0-2.1-0.1-3.1-0.2c-1-0.1-2-0.4-3-0.6c-1-0.3-1.9-0.5-2.9-0.9s-1.9-0.7-2.9-1.1l1-10.5c0.6,0.4,1.3,0.7,2,1s1.5,0.6,2.2,0.8
			c0.8,0.2,1.5,0.4,2.3,0.5s1.5,0.2,2.3,0.2c0.4,0,1,0,1.6-0.1c0.6-0.1,1.2-0.2,1.8-0.4s1.1-0.5,1.5-0.9c0.4-0.4,0.6-0.9,0.6-1.5
			c0-0.6-0.2-1.1-0.5-1.5s-0.7-0.8-1.3-1c-0.5-0.3-1.1-0.5-1.8-0.6s-1.3-0.3-2-0.4c-0.7-0.1-1.3-0.1-1.9-0.2s-1.1,0-1.5,0
			c-0.8,0-1.6,0-2.4,0.1c-0.8,0.1-1.6,0.2-2.4,0.4l1.1-21.3l21.4-0.6l0.6,11l-13.2-0.7l-0.3,4.7c0.8-0.2,1.6-0.3,2.4-0.4
			c0.8-0.1,1.6-0.1,2.4-0.1c1.6,0,3.1,0.3,4.5,0.8c1.4,0.5,2.6,1.3,3.6,2.2c1,1,1.8,2.1,2.4,3.5
			C1184.8,464.3,1185.1,465.8,1185.1,467.5z"/>
	</g>
</g>
<g id="Layer_6">
	<path fill="#2B3990" d="M147.7,263l11.6-98.7c1.2-10.5-24.7-22.2-57.9-26.1l-39.1-4.6l-6.9-0.8l-28.3-3.3l-75.2-8.8l-16.1,136.8
		l75.2,8.8l28.3,3.3l6.9,0.8l39.1,4.6C118.6,278.9,146.5,273.5,147.7,263z"/>
	<path fill="#2B3990" d="M1202.7,464.2l20.2,97.3c2.2,10.4,28.9,13.6,59.8,7.2l36.4-7.5l6.4-1.3l26.4-5.5l70-14.5l-28-134.8
		l-70,14.5l-26.4,5.5l-6.4,1.3l-36.4,7.5C1223.9,440.2,1200.6,453.8,1202.7,464.2z"/>
	<g>
		<path fill="#F2ECE1" d="M42.3,205.2l6.6,26.5l-7.9,3.1l-8.7-25.7L42.3,205.2z"/>
		<path fill="#F2ECE1" d="M69.2,195.5l7.3,26.2l-9.6,4.3l-10-12l3.9,14.3l-8.5,2.9L43.9,204l9.3-3.7l11.2,11.4l-4.1-13L69.2,195.5z"
			/>
		<path fill="#F2ECE1" d="M81.1,192l6.6,26.5l-7.9,3.1L71.2,196L81.1,192z M83.8,184.2c-1.2,1.3-2.4,2.7-3.6,4
			c-1.1,1.3-2.3,2.7-3.4,4.2l-3.3-1.8c0.1-0.4,0.3-0.8,0.6-1.3c0.2-0.5,0.5-1,0.7-1.5c0.3-0.5,0.5-1.1,0.8-1.6
			c0.3-0.5,0.6-1.1,0.9-1.6c0.7-1.2,1.4-2.4,2.1-3.7L83.8,184.2z"/>
		<path fill="#F2ECE1" d="M101.1,185.3l1.6,8.4c-0.4,0-0.8,0.1-1.2,0.2c-0.4,0.1-0.8,0.2-1.1,0.3c-0.9,0.3-1.8,0.7-2.5,1.3
			c-0.8,0.5-1.4,1.2-1.9,1.9c-0.5,0.7-0.8,1.5-0.9,2.4c-0.1,0.9,0,1.8,0.3,2.9c0.2,0.7,0.5,1.2,0.9,1.6c0.4,0.4,0.8,0.7,1.3,0.9
			c0.5,0.2,1,0.3,1.6,0.2s1.2-0.1,1.8-0.3c0.5-0.2,0.9-0.4,1.4-0.6c0.5-0.3,0.9-0.6,1.4-0.9c0.4-0.3,0.9-0.7,1.2-1.1
			c0.4-0.4,0.8-0.7,1.1-1.1l2.3,9.2c-0.4,0.4-0.9,0.8-1.4,1.2c-0.5,0.4-1,0.8-1.6,1.1c-0.6,0.4-1.1,0.7-1.7,0.9
			c-0.6,0.3-1.2,0.5-1.7,0.7c-1.6,0.5-3.2,0.8-4.8,0.6c-1.6-0.1-3.1-0.5-4.4-1.2c-1.4-0.7-2.6-1.6-3.7-2.9c-1.1-1.2-1.9-2.6-2.4-4.3
			c-0.7-2.2-1.1-4.3-1.1-6.4c0-2.1,0.3-4.1,1-6c0.7-1.8,1.8-3.5,3.3-4.9c1.5-1.4,3.4-2.5,5.7-3.3c0.9-0.3,1.8-0.5,2.8-0.7
			C99.2,185.2,100.1,185.2,101.1,185.3z"/>
		<path fill="#F2ECE1" d="M112.5,181.4l6.6,26.5l-7.9,3.1l-8.7-25.7L112.5,181.4z"/>
		<path fill="#F2ECE1" d="M141.4,186.5c0.4,1.2,0.6,2.3,0.7,3.5c0.1,1.2,0.1,2.3-0.1,3.4s-0.5,2.2-1,3.2c-0.5,1-1,2-1.7,2.8
			c-0.7,0.9-1.5,1.6-2.5,2.3c-0.9,0.7-2,1.2-3.2,1.6c-1.1,0.4-2.3,0.6-3.4,0.7c-1.1,0.1-2.2,0-3.3-0.2c-1.1-0.2-2.1-0.6-3.1-1.1
			c-1-0.5-1.9-1.1-2.7-1.8c-0.8-0.7-1.5-1.6-2.2-2.5c-0.6-0.9-1.1-2-1.5-3.1c-0.4-1.1-0.6-2.2-0.7-3.4c-0.1-1.1,0-2.3,0.1-3.4
			c0.2-1.1,0.5-2.2,0.9-3.2c0.4-1,1-2,1.7-2.8c0.7-0.9,1.5-1.6,2.4-2.3c0.9-0.7,1.9-1.2,3.1-1.6c1.8-0.6,3.6-0.9,5.3-0.8
			c1.7,0.1,3.3,0.4,4.7,1.1c1.4,0.7,2.7,1.7,3.8,3C140,183.1,140.8,184.6,141.4,186.5z M133.2,189.8c-0.2-0.5-0.4-1-0.8-1.5
			c-0.3-0.5-0.7-0.8-1.2-1.1c-0.4-0.3-0.9-0.5-1.5-0.6c-0.5-0.1-1.1,0-1.7,0.2c-0.6,0.2-1.1,0.5-1.5,0.9c-0.4,0.4-0.7,0.8-0.9,1.3
			c-0.2,0.5-0.3,1-0.3,1.6c0,0.6,0.1,1.1,0.3,1.7c0.2,0.5,0.4,1,0.8,1.5c0.3,0.5,0.7,0.9,1.2,1.2c0.4,0.3,0.9,0.5,1.5,0.7
			c0.5,0.1,1.1,0.1,1.7-0.1c0.6-0.2,1.1-0.5,1.5-0.9c0.4-0.4,0.7-0.8,0.9-1.4c0.2-0.5,0.3-1.1,0.3-1.6
			C133.5,190.9,133.4,190.4,133.2,189.8z"/>
	</g>
	<g>
		<path fill="#F2ECE1" d="M1239.9,467.9l-2,5.9c-0.3-0.1-0.5-0.2-0.8-0.3c-0.3-0.1-0.5-0.2-0.8-0.2c-0.7-0.1-1.4-0.2-2.1-0.1
			c-0.7,0.1-1.3,0.2-1.9,0.5c-0.6,0.3-1.1,0.7-1.5,1.2c-0.4,0.5-0.7,1.2-0.8,1.9c-0.1,0.5-0.1,0.9,0,1.3c0.1,0.4,0.2,0.7,0.5,1
			c0.2,0.3,0.5,0.5,0.9,0.7c0.4,0.2,0.8,0.3,1.3,0.4c0.4,0.1,0.7,0.1,1.1,0.1s0.8,0,1.2-0.1c0.4,0,0.8-0.1,1.2-0.2
			c0.4-0.1,0.7-0.2,1.1-0.3l-1.9,6.6c-0.4,0.1-0.9,0.2-1.3,0.3c-0.5,0.1-0.9,0.1-1.4,0.1s-1,0-1.4,0c-0.5,0-0.9-0.1-1.3-0.2
			c-1.2-0.2-2.3-0.7-3.3-1.4c-1-0.7-1.8-1.5-2.4-2.4c-0.6-0.9-1-2-1.3-3.1c-0.2-1.2-0.2-2.4,0-3.6c0.3-1.6,0.9-3.1,1.6-4.5
			c0.8-1.4,1.7-2.5,2.8-3.4c1.1-0.9,2.4-1.5,3.9-1.9c1.5-0.4,3.1-0.4,4.8,0c0.7,0.1,1.3,0.3,2,0.6
			C1238.7,467.1,1239.4,467.4,1239.9,467.9z"/>
		<path fill="#F2ECE1" d="M1253.7,491.7l-7.2-1.1l1.3-6.6l-3.3-0.7l-1.5,6.2l-6.4-1.3l4.7-20.1l6.8,1.7l-2.5,10.2l3.2,0.6l2.3-11.1
			l6.5,1.5L1253.7,491.7z"/>
		<path fill="#F2ECE1" d="M1272.9,474c-0.2,0.9-0.5,1.8-0.7,2.6c-0.2,0.9-0.5,1.7-0.7,2.6l-6.1-0.9l-0.5,1.8l4.3,0.9l-1.2,4.4
			l-4.3-0.7l-0.6,2.1l3.6,0.7l2.5,0.5c-0.3,1-0.5,2.1-0.8,3.1s-0.5,2.1-0.8,3.1l-12.4-2.2l4.7-20.6L1272.9,474z"/>
		<path fill="#F2ECE1" d="M1286.7,495.4c-0.6,0.5-1.2,0.9-2,1.1c-0.7,0.3-1.5,0.5-2.3,0.6s-1.6,0.2-2.5,0.2c-0.8,0-1.6-0.1-2.3-0.3
			c-1.4-0.3-2.6-0.8-3.7-1.5s-1.9-1.6-2.6-2.7c-0.7-1-1.1-2.2-1.4-3.5c-0.2-1.3-0.2-2.6,0.1-4c0.2-1,0.5-2,1-3c0.4-1,1-1.8,1.6-2.6
			c0.6-0.8,1.3-1.5,2.1-2.1c0.8-0.6,1.6-1.1,2.6-1.5s1.9-0.6,2.9-0.7c1-0.1,2.1,0,3.2,0.2c0.4,0.1,0.8,0.2,1.3,0.3
			c0.5,0.1,0.9,0.3,1.4,0.5c0.4,0.2,0.9,0.4,1.3,0.6c0.4,0.2,0.8,0.5,1.1,0.8l-1.5,5.4c-0.5-0.3-1-0.6-1.6-0.7
			c-0.6-0.2-1.1-0.3-1.6-0.4c-0.8-0.2-1.5-0.2-2.2-0.1c-0.7,0.1-1.4,0.3-1.9,0.7c-0.6,0.3-1.1,0.8-1.5,1.4s-0.7,1.3-0.9,2.1
			c-0.1,0.5-0.1,1-0.1,1.5c0,0.5,0.2,0.9,0.4,1.4c0.2,0.4,0.5,0.8,0.8,1.1c0.4,0.3,0.8,0.5,1.3,0.6c0.4,0.1,0.7,0.1,1.2,0.1
			c0.4,0,0.8-0.1,1.1-0.3l0.3-1.1l-3.4-0.8l1-4.3c1.4,0.2,2.9,0.5,4.3,0.7c1.4,0.3,2.9,0.5,4.3,0.7L1286.7,495.4z"/>
		<path fill="#F2ECE1" d="M1305.5,501l-7.3-0.5l-0.2-3.4l-3.3-0.7l-1.4,3.1l-7.2-2.2l9.6-18l8.1,1.2L1305.5,501z M1298.4,492.5
			l-0.1-5.2l-2.1,4.8L1298.4,492.5z"/>
		<path fill="#F2ECE1" d="M1324.2,494.2c-0.3,1.3-0.7,2.5-1.3,3.5c-0.6,1-1.2,1.9-2,2.6c-0.8,0.7-1.7,1.3-2.6,1.7s-2,0.7-3.1,0.9
			c-1.1,0.2-2.2,0.2-3.4,0.2c-1.2,0-2.4-0.2-3.6-0.4c-0.5-0.1-0.9-0.2-1.3-0.3c-0.4-0.1-0.9-0.2-1.3-0.4l4.3-19.2
			c1.1-0.1,2.3-0.1,3.4,0c1.1,0.1,2.3,0.2,3.4,0.5c1.4,0.3,2.6,0.7,3.6,1.4s1.9,1.4,2.6,2.4s1.1,2,1.4,3.2
			C1324.5,491.4,1324.5,492.8,1324.2,494.2z M1318.1,493.9c0.1-0.5,0.2-1,0.1-1.5c0-0.5-0.1-1-0.3-1.4c-0.2-0.4-0.5-0.8-0.9-1.1
			c-0.4-0.3-0.9-0.5-1.4-0.7l-2.4,8.8c0.6,0,1.2-0.1,1.7-0.2s1-0.5,1.4-0.8c0.4-0.4,0.8-0.8,1.1-1.3s0.5-1,0.6-1.6L1318.1,493.9z"/>
		<path fill="#F2ECE1" d="M1340.4,508l-7.3-0.5l-0.2-3.4l-3.3-0.7l-1.4,3.1l-7.2-2.2l9.6-18l8.1,1.2L1340.4,508z M1333.2,499.6
			l-0.1-5.2l-2.1,4.8L1333.2,499.6z"/>
	</g>
	<g>
	</g>
	<g>
	</g>
	<g>
	</g>
	<g>
	</g>
	<g>
	</g>
	<g>
	</g>
</g>
</svg>
